<mxfile host="app.diagrams.net" agent="Mozilla/5.0 (Windows NT 10.0; Win64; x64) AppleWebKit/537.36 (KHTML, like Gecko) Chrome/135.0.0.0 Safari/537.36" version="26.2.10">
  <diagram name="Page-1" id="YHtm2XLclMCAct8thBLY">
    <mxGraphModel dx="1691" dy="464" grid="1" gridSize="10" guides="1" tooltips="1" connect="1" arrows="1" fold="1" page="1" pageScale="1" pageWidth="850" pageHeight="1100" math="0" shadow="0">
      <root>
        <mxCell id="0" />
        <mxCell id="1" parent="0" />
        <mxCell id="9E_fkBD__RbafPpFBMVh-1" value="Books" style="shape=table;startSize=35;container=1;collapsible=1;childLayout=tableLayout;fixedRows=1;rowLines=0;fontStyle=1;align=center;resizeLast=1;html=1;fillColor=light-dark(#FFFFFF,#FFFFFF);strokeColor=light-dark(#000000,#FF33FF);fillOpacity=100;fontColor=light-dark(#000000, #0f0f0f);strokeWidth=3;" parent="1" vertex="1">
          <mxGeometry x="20" y="130" width="190" height="200" as="geometry" />
        </mxCell>
        <mxCell id="9E_fkBD__RbafPpFBMVh-2" value="" style="shape=tableRow;horizontal=0;startSize=0;swimlaneHead=0;swimlaneBody=0;fillColor=none;collapsible=0;dropTarget=0;points=[[0,0.5],[1,0.5]];portConstraint=eastwest;top=0;left=0;right=0;bottom=1;strokeColor=light-dark(#000000,#FF33FF);fillOpacity=100;strokeWidth=3;" parent="9E_fkBD__RbafPpFBMVh-1" vertex="1">
          <mxGeometry y="35" width="190" height="35" as="geometry" />
        </mxCell>
        <mxCell id="9E_fkBD__RbafPpFBMVh-3" value="PK" style="shape=partialRectangle;connectable=0;fillColor=light-dark(#FFFFFF,#FFFFFF);top=0;left=0;bottom=0;right=0;fontStyle=1;overflow=hidden;whiteSpace=wrap;html=1;strokeColor=light-dark(#000000,#FF33FF);fillOpacity=100;fontColor=light-dark(#000000,#000000);strokeWidth=3;" parent="9E_fkBD__RbafPpFBMVh-2" vertex="1">
          <mxGeometry width="30" height="35" as="geometry">
            <mxRectangle width="30" height="35" as="alternateBounds" />
          </mxGeometry>
        </mxCell>
        <mxCell id="9E_fkBD__RbafPpFBMVh-4" value="Book_ID" style="shape=partialRectangle;connectable=0;top=0;left=0;bottom=0;right=0;align=left;spacingLeft=6;fontStyle=5;overflow=hidden;whiteSpace=wrap;html=1;fillOpacity=100;strokeColor=light-dark(#000000,#FF33FF);fillColor=light-dark(#FFFFFF,#FFFFFF);fontColor=light-dark(#000000,#000000);strokeWidth=3;" parent="9E_fkBD__RbafPpFBMVh-2" vertex="1">
          <mxGeometry x="30" width="160" height="35" as="geometry">
            <mxRectangle width="160" height="35" as="alternateBounds" />
          </mxGeometry>
        </mxCell>
        <mxCell id="9E_fkBD__RbafPpFBMVh-5" value="" style="shape=tableRow;horizontal=0;startSize=0;swimlaneHead=0;swimlaneBody=0;fillColor=none;collapsible=0;dropTarget=0;points=[[0,0.5],[1,0.5]];portConstraint=eastwest;top=0;left=0;right=0;bottom=0;strokeColor=light-dark(#000000,#FF33FF);fillOpacity=100;strokeWidth=3;" parent="9E_fkBD__RbafPpFBMVh-1" vertex="1">
          <mxGeometry y="70" width="190" height="30" as="geometry" />
        </mxCell>
        <mxCell id="9E_fkBD__RbafPpFBMVh-6" value="" style="shape=partialRectangle;connectable=0;fillColor=light-dark(#FFFFFF,#FFFFFF);top=0;left=0;bottom=0;right=0;editable=1;overflow=hidden;whiteSpace=wrap;html=1;strokeColor=light-dark(#000000,#FF33FF);fillOpacity=100;fontColor=light-dark(#000000,#000000);strokeWidth=3;" parent="9E_fkBD__RbafPpFBMVh-5" vertex="1">
          <mxGeometry width="30" height="30" as="geometry">
            <mxRectangle width="30" height="30" as="alternateBounds" />
          </mxGeometry>
        </mxCell>
        <mxCell id="9E_fkBD__RbafPpFBMVh-7" value="Title&lt;div&gt;ISBN&lt;/div&gt;" style="shape=partialRectangle;connectable=0;top=0;left=0;bottom=0;right=0;align=left;spacingLeft=6;overflow=hidden;whiteSpace=wrap;html=1;fillOpacity=100;strokeColor=light-dark(#000000,#FF33FF);fillColor=light-dark(#FFFFFF,#FFFFFF);fontColor=light-dark(#000000,#000000);strokeWidth=3;" parent="9E_fkBD__RbafPpFBMVh-5" vertex="1">
          <mxGeometry x="30" width="160" height="30" as="geometry">
            <mxRectangle width="160" height="30" as="alternateBounds" />
          </mxGeometry>
        </mxCell>
        <mxCell id="9E_fkBD__RbafPpFBMVh-8" value="" style="shape=tableRow;horizontal=0;startSize=0;swimlaneHead=0;swimlaneBody=0;fillColor=none;collapsible=0;dropTarget=0;points=[[0,0.5],[1,0.5]];portConstraint=eastwest;top=0;left=0;right=0;bottom=0;strokeColor=light-dark(#000000,#FF33FF);fillOpacity=100;strokeWidth=3;" parent="9E_fkBD__RbafPpFBMVh-1" vertex="1">
          <mxGeometry y="100" width="190" height="60" as="geometry" />
        </mxCell>
        <mxCell id="9E_fkBD__RbafPpFBMVh-9" value="" style="shape=partialRectangle;connectable=0;fillColor=light-dark(#FFFFFF,#FFFFFF);top=0;left=0;bottom=0;right=0;editable=1;overflow=hidden;whiteSpace=wrap;html=1;strokeColor=light-dark(#000000,#FF33FF);fillOpacity=100;fontColor=light-dark(#000000,#000000);strokeWidth=3;" parent="9E_fkBD__RbafPpFBMVh-8" vertex="1">
          <mxGeometry width="30" height="60" as="geometry">
            <mxRectangle width="30" height="60" as="alternateBounds" />
          </mxGeometry>
        </mxCell>
        <mxCell id="9E_fkBD__RbafPpFBMVh-10" value="Publication_Year&lt;div&gt;Publisher_ID(FK)&lt;/div&gt;" style="shape=partialRectangle;connectable=0;top=0;left=0;bottom=0;right=0;align=left;spacingLeft=6;overflow=hidden;whiteSpace=wrap;html=1;fillOpacity=100;strokeColor=light-dark(#000000,#FF33FF);fillColor=light-dark(#FFFFFF,#FFFFFF);fontColor=light-dark(#000000,#000000);strokeWidth=3;" parent="9E_fkBD__RbafPpFBMVh-8" vertex="1">
          <mxGeometry x="30" width="160" height="60" as="geometry">
            <mxRectangle width="160" height="60" as="alternateBounds" />
          </mxGeometry>
        </mxCell>
        <mxCell id="9E_fkBD__RbafPpFBMVh-11" value="" style="shape=tableRow;horizontal=0;startSize=0;swimlaneHead=0;swimlaneBody=0;fillColor=none;collapsible=0;dropTarget=0;points=[[0,0.5],[1,0.5]];portConstraint=eastwest;top=0;left=0;right=0;bottom=0;strokeColor=light-dark(#000000,#FF33FF);fillOpacity=100;strokeWidth=3;" parent="9E_fkBD__RbafPpFBMVh-1" vertex="1">
          <mxGeometry y="160" width="190" height="40" as="geometry" />
        </mxCell>
        <mxCell id="9E_fkBD__RbafPpFBMVh-12" value="" style="shape=partialRectangle;connectable=0;fillColor=light-dark(#FFFFFF,#FFFFFF);top=0;left=0;bottom=0;right=0;editable=1;overflow=hidden;whiteSpace=wrap;html=1;strokeColor=light-dark(#000000,#FF33FF);fillOpacity=100;fontColor=light-dark(#000000,#000000);strokeWidth=3;" parent="9E_fkBD__RbafPpFBMVh-11" vertex="1">
          <mxGeometry width="30" height="40" as="geometry">
            <mxRectangle width="30" height="40" as="alternateBounds" />
          </mxGeometry>
        </mxCell>
        <mxCell id="9E_fkBD__RbafPpFBMVh-13" value="&lt;div&gt;Language_ID(FK)&lt;/div&gt;Price" style="shape=partialRectangle;connectable=0;top=0;left=0;bottom=0;right=0;align=left;spacingLeft=6;overflow=hidden;whiteSpace=wrap;html=1;fillOpacity=100;strokeColor=light-dark(#000000,#FF33FF);fillColor=light-dark(#FFFFFF,#FFFFFF);fontColor=light-dark(#000000,#000000);strokeWidth=3;" parent="9E_fkBD__RbafPpFBMVh-11" vertex="1">
          <mxGeometry x="30" width="160" height="40" as="geometry">
            <mxRectangle width="160" height="40" as="alternateBounds" />
          </mxGeometry>
        </mxCell>
        <mxCell id="9E_fkBD__RbafPpFBMVh-27" value="Authors" style="shape=table;startSize=30;container=1;collapsible=1;childLayout=tableLayout;fixedRows=1;rowLines=0;fontStyle=1;align=center;resizeLast=1;html=1;strokeColor=light-dark(#000000,#FF33FF);fontColor=light-dark(#000000,#000000);fillColor=light-dark(#FFFFFF,#FFFFFF);strokeWidth=3;" parent="1" vertex="1">
          <mxGeometry x="365" y="120" width="120" height="160" as="geometry" />
        </mxCell>
        <mxCell id="9E_fkBD__RbafPpFBMVh-28" value="" style="shape=tableRow;horizontal=0;startSize=0;swimlaneHead=0;swimlaneBody=0;collapsible=0;dropTarget=0;points=[[0,0.5],[1,0.5]];portConstraint=eastwest;top=0;left=0;right=0;bottom=1;strokeColor=light-dark(#000000,#FF33FF);fontColor=light-dark(#000000,#000000);fillColor=light-dark(#FFFFFF,#FFFFFF);strokeWidth=3;" parent="9E_fkBD__RbafPpFBMVh-27" vertex="1">
          <mxGeometry y="30" width="120" height="40" as="geometry" />
        </mxCell>
        <mxCell id="9E_fkBD__RbafPpFBMVh-29" value="PK" style="shape=partialRectangle;connectable=0;top=0;left=0;bottom=0;right=0;fontStyle=1;overflow=hidden;whiteSpace=wrap;html=1;strokeColor=light-dark(#000000,#FF33FF);fontColor=light-dark(#000000,#000000);fillColor=light-dark(#FFFFFF,#FFFFFF);strokeWidth=3;" parent="9E_fkBD__RbafPpFBMVh-28" vertex="1">
          <mxGeometry width="30" height="40" as="geometry">
            <mxRectangle width="30" height="40" as="alternateBounds" />
          </mxGeometry>
        </mxCell>
        <mxCell id="9E_fkBD__RbafPpFBMVh-30" value="Author_ID" style="shape=partialRectangle;connectable=0;top=0;left=0;bottom=0;right=0;align=left;spacingLeft=6;fontStyle=5;overflow=hidden;whiteSpace=wrap;html=1;strokeColor=light-dark(#000000,#FF33FF);fontColor=light-dark(#000000,#000000);fillColor=light-dark(#FFFFFF,#FFFFFF);strokeWidth=3;" parent="9E_fkBD__RbafPpFBMVh-28" vertex="1">
          <mxGeometry x="30" width="90" height="40" as="geometry">
            <mxRectangle width="90" height="40" as="alternateBounds" />
          </mxGeometry>
        </mxCell>
        <mxCell id="9E_fkBD__RbafPpFBMVh-31" value="" style="shape=tableRow;horizontal=0;startSize=0;swimlaneHead=0;swimlaneBody=0;collapsible=0;dropTarget=0;points=[[0,0.5],[1,0.5]];portConstraint=eastwest;top=0;left=0;right=0;bottom=0;strokeColor=light-dark(#000000,#FF33FF);fontColor=light-dark(#000000,#000000);fillColor=light-dark(#FFFFFF,#FFFFFF);strokeWidth=3;" parent="9E_fkBD__RbafPpFBMVh-27" vertex="1">
          <mxGeometry y="70" width="120" height="30" as="geometry" />
        </mxCell>
        <mxCell id="9E_fkBD__RbafPpFBMVh-32" value="" style="shape=partialRectangle;connectable=0;top=0;left=0;bottom=0;right=0;editable=1;overflow=hidden;whiteSpace=wrap;html=1;strokeColor=light-dark(#000000,#FF33FF);fontColor=light-dark(#000000,#000000);fillColor=light-dark(#FFFFFF,#FFFFFF);strokeWidth=3;" parent="9E_fkBD__RbafPpFBMVh-31" vertex="1">
          <mxGeometry width="30" height="30" as="geometry">
            <mxRectangle width="30" height="30" as="alternateBounds" />
          </mxGeometry>
        </mxCell>
        <mxCell id="9E_fkBD__RbafPpFBMVh-33" value="first_Name" style="shape=partialRectangle;connectable=0;top=0;left=0;bottom=0;right=0;align=left;spacingLeft=6;overflow=hidden;whiteSpace=wrap;html=1;strokeColor=light-dark(#000000,#FF33FF);fontColor=light-dark(#000000,#000000);fillColor=light-dark(#FFFFFF,#FFFFFF);strokeWidth=3;" parent="9E_fkBD__RbafPpFBMVh-31" vertex="1">
          <mxGeometry x="30" width="90" height="30" as="geometry">
            <mxRectangle width="90" height="30" as="alternateBounds" />
          </mxGeometry>
        </mxCell>
        <mxCell id="9E_fkBD__RbafPpFBMVh-34" value="" style="shape=tableRow;horizontal=0;startSize=0;swimlaneHead=0;swimlaneBody=0;collapsible=0;dropTarget=0;points=[[0,0.5],[1,0.5]];portConstraint=eastwest;top=0;left=0;right=0;bottom=0;strokeColor=light-dark(#000000,#FF33FF);fontColor=light-dark(#000000,#000000);fillColor=light-dark(#FFFFFF,#FFFFFF);strokeWidth=3;" parent="9E_fkBD__RbafPpFBMVh-27" vertex="1">
          <mxGeometry y="100" width="120" height="30" as="geometry" />
        </mxCell>
        <mxCell id="9E_fkBD__RbafPpFBMVh-35" value="" style="shape=partialRectangle;connectable=0;top=0;left=0;bottom=0;right=0;editable=1;overflow=hidden;whiteSpace=wrap;html=1;strokeColor=light-dark(#000000,#FF33FF);fontColor=light-dark(#000000,#000000);fillColor=light-dark(#FFFFFF,#FFFFFF);strokeWidth=3;" parent="9E_fkBD__RbafPpFBMVh-34" vertex="1">
          <mxGeometry width="30" height="30" as="geometry">
            <mxRectangle width="30" height="30" as="alternateBounds" />
          </mxGeometry>
        </mxCell>
        <mxCell id="9E_fkBD__RbafPpFBMVh-36" value="last_Name" style="shape=partialRectangle;connectable=0;top=0;left=0;bottom=0;right=0;align=left;spacingLeft=6;overflow=hidden;whiteSpace=wrap;html=1;strokeColor=light-dark(#000000,#FF33FF);fontColor=light-dark(#000000,#000000);fillColor=light-dark(#FFFFFF,#FFFFFF);strokeWidth=3;" parent="9E_fkBD__RbafPpFBMVh-34" vertex="1">
          <mxGeometry x="30" width="90" height="30" as="geometry">
            <mxRectangle width="90" height="30" as="alternateBounds" />
          </mxGeometry>
        </mxCell>
        <mxCell id="9E_fkBD__RbafPpFBMVh-37" value="" style="shape=tableRow;horizontal=0;startSize=0;swimlaneHead=0;swimlaneBody=0;collapsible=0;dropTarget=0;points=[[0,0.5],[1,0.5]];portConstraint=eastwest;top=0;left=0;right=0;bottom=0;strokeColor=light-dark(#000000,#FF33FF);fontColor=light-dark(#000000,#000000);fillColor=light-dark(#FFFFFF,#FFFFFF);strokeWidth=3;" parent="9E_fkBD__RbafPpFBMVh-27" vertex="1">
          <mxGeometry y="130" width="120" height="30" as="geometry" />
        </mxCell>
        <mxCell id="9E_fkBD__RbafPpFBMVh-38" value="" style="shape=partialRectangle;connectable=0;top=0;left=0;bottom=0;right=0;editable=1;overflow=hidden;whiteSpace=wrap;html=1;strokeColor=light-dark(#000000,#FF33FF);fontColor=light-dark(#000000,#000000);fillColor=light-dark(#FFFFFF,#FFFFFF);strokeWidth=3;" parent="9E_fkBD__RbafPpFBMVh-37" vertex="1">
          <mxGeometry width="30" height="30" as="geometry">
            <mxRectangle width="30" height="30" as="alternateBounds" />
          </mxGeometry>
        </mxCell>
        <mxCell id="9E_fkBD__RbafPpFBMVh-39" value="" style="shape=partialRectangle;connectable=0;top=0;left=0;bottom=0;right=0;align=left;spacingLeft=6;overflow=hidden;whiteSpace=wrap;html=1;strokeColor=light-dark(#000000,#FF33FF);fontColor=light-dark(#000000,#000000);fillColor=light-dark(#FFFFFF,#FFFFFF);strokeWidth=3;" parent="9E_fkBD__RbafPpFBMVh-37" vertex="1">
          <mxGeometry x="30" width="90" height="30" as="geometry">
            <mxRectangle width="90" height="30" as="alternateBounds" />
          </mxGeometry>
        </mxCell>
        <mxCell id="9E_fkBD__RbafPpFBMVh-45" value="Language" style="shape=table;startSize=30;container=1;collapsible=1;childLayout=tableLayout;fixedRows=1;rowLines=0;fontStyle=1;align=center;resizeLast=1;html=1;fillOpacity=100;strokeColor=light-dark(#000000,#FF33FF);fillColor=light-dark(#FFFFFF,#FFFFFF);fontColor=light-dark(#000000,#000000);strokeWidth=3;" parent="1" vertex="1">
          <mxGeometry x="-200" y="390" width="180" height="160" as="geometry" />
        </mxCell>
        <mxCell id="9E_fkBD__RbafPpFBMVh-46" value="" style="shape=tableRow;horizontal=0;startSize=0;swimlaneHead=0;swimlaneBody=0;collapsible=0;dropTarget=0;points=[[0,0.5],[1,0.5]];portConstraint=eastwest;top=0;left=0;right=0;bottom=1;fillOpacity=100;strokeColor=light-dark(#000000,#FF33FF);strokeWidth=3;" parent="9E_fkBD__RbafPpFBMVh-45" vertex="1">
          <mxGeometry y="30" width="180" height="60" as="geometry" />
        </mxCell>
        <mxCell id="9E_fkBD__RbafPpFBMVh-47" value="PK" style="shape=partialRectangle;connectable=0;top=0;left=0;bottom=0;right=0;fontStyle=1;overflow=hidden;whiteSpace=wrap;html=1;fillOpacity=100;strokeColor=light-dark(#000000,#FF33FF);fontColor=light-dark(#000000,#000000);fillColor=light-dark(#FFFFFF,#FFFFFF);strokeWidth=3;" parent="9E_fkBD__RbafPpFBMVh-46" vertex="1">
          <mxGeometry width="30" height="60" as="geometry">
            <mxRectangle width="30" height="60" as="alternateBounds" />
          </mxGeometry>
        </mxCell>
        <mxCell id="9E_fkBD__RbafPpFBMVh-48" value="Language_ID" style="shape=partialRectangle;connectable=0;top=0;left=0;bottom=0;right=0;align=left;spacingLeft=6;fontStyle=5;overflow=hidden;whiteSpace=wrap;html=1;fillOpacity=100;strokeColor=light-dark(#000000,#FF33FF);fontColor=light-dark(#000000,#000000);fillColor=light-dark(#FFFFFF,#FFFFFF);strokeWidth=3;" parent="9E_fkBD__RbafPpFBMVh-46" vertex="1">
          <mxGeometry x="30" width="150" height="60" as="geometry">
            <mxRectangle width="150" height="60" as="alternateBounds" />
          </mxGeometry>
        </mxCell>
        <mxCell id="9E_fkBD__RbafPpFBMVh-49" value="" style="shape=tableRow;horizontal=0;startSize=0;swimlaneHead=0;swimlaneBody=0;collapsible=0;dropTarget=0;points=[[0,0.5],[1,0.5]];portConstraint=eastwest;top=0;left=0;right=0;bottom=0;fillOpacity=100;strokeColor=light-dark(#000000,#FF33FF);strokeWidth=3;" parent="9E_fkBD__RbafPpFBMVh-45" vertex="1">
          <mxGeometry y="90" width="180" height="30" as="geometry" />
        </mxCell>
        <mxCell id="9E_fkBD__RbafPpFBMVh-50" value="" style="shape=partialRectangle;connectable=0;top=0;left=0;bottom=0;right=0;editable=1;overflow=hidden;whiteSpace=wrap;html=1;fillOpacity=100;strokeColor=light-dark(#000000,#FF33FF);fontColor=light-dark(#000000,#000000);fillColor=light-dark(#FFFFFF,#FFFFFF);strokeWidth=3;" parent="9E_fkBD__RbafPpFBMVh-49" vertex="1">
          <mxGeometry width="30" height="30" as="geometry">
            <mxRectangle width="30" height="30" as="alternateBounds" />
          </mxGeometry>
        </mxCell>
        <mxCell id="9E_fkBD__RbafPpFBMVh-51" value="Language_name" style="shape=partialRectangle;connectable=0;top=0;left=0;bottom=0;right=0;align=left;spacingLeft=6;overflow=hidden;whiteSpace=wrap;html=1;fillOpacity=100;strokeColor=light-dark(#000000,#FF33FF);fontColor=light-dark(#000000,#000000);fillColor=light-dark(#FFFFFF,#FFFFFF);strokeWidth=3;" parent="9E_fkBD__RbafPpFBMVh-49" vertex="1">
          <mxGeometry x="30" width="150" height="30" as="geometry">
            <mxRectangle width="150" height="30" as="alternateBounds" />
          </mxGeometry>
        </mxCell>
        <mxCell id="9E_fkBD__RbafPpFBMVh-52" value="" style="shape=tableRow;horizontal=0;startSize=0;swimlaneHead=0;swimlaneBody=0;collapsible=0;dropTarget=0;points=[[0,0.5],[1,0.5]];portConstraint=eastwest;top=0;left=0;right=0;bottom=0;fillOpacity=100;strokeColor=light-dark(#000000,#FF33FF);strokeWidth=3;" parent="9E_fkBD__RbafPpFBMVh-45" vertex="1">
          <mxGeometry y="120" width="180" height="20" as="geometry" />
        </mxCell>
        <mxCell id="9E_fkBD__RbafPpFBMVh-53" value="" style="shape=partialRectangle;connectable=0;top=0;left=0;bottom=0;right=0;editable=1;overflow=hidden;whiteSpace=wrap;html=1;fillOpacity=100;strokeColor=light-dark(#000000,#FF33FF);fillColor=light-dark(#FFFFFF,#FFFFFF);strokeWidth=3;" parent="9E_fkBD__RbafPpFBMVh-52" vertex="1">
          <mxGeometry width="30" height="20" as="geometry">
            <mxRectangle width="30" height="20" as="alternateBounds" />
          </mxGeometry>
        </mxCell>
        <mxCell id="9E_fkBD__RbafPpFBMVh-54" value="" style="shape=partialRectangle;connectable=0;top=0;left=0;bottom=0;right=0;align=left;spacingLeft=6;overflow=hidden;whiteSpace=wrap;html=1;fillOpacity=100;strokeColor=light-dark(#000000,#FF33FF);fillColor=light-dark(#FFFFFF,#FFFFFF);strokeWidth=3;" parent="9E_fkBD__RbafPpFBMVh-52" vertex="1">
          <mxGeometry x="30" width="150" height="20" as="geometry">
            <mxRectangle width="150" height="20" as="alternateBounds" />
          </mxGeometry>
        </mxCell>
        <mxCell id="9E_fkBD__RbafPpFBMVh-55" value="" style="shape=tableRow;horizontal=0;startSize=0;swimlaneHead=0;swimlaneBody=0;collapsible=0;dropTarget=0;points=[[0,0.5],[1,0.5]];portConstraint=eastwest;top=0;left=0;right=0;bottom=0;fillOpacity=100;strokeColor=light-dark(#000000,#FF33FF);strokeWidth=3;" parent="9E_fkBD__RbafPpFBMVh-45" vertex="1">
          <mxGeometry y="140" width="180" height="20" as="geometry" />
        </mxCell>
        <mxCell id="9E_fkBD__RbafPpFBMVh-56" value="" style="shape=partialRectangle;connectable=0;top=0;left=0;bottom=0;right=0;editable=1;overflow=hidden;whiteSpace=wrap;html=1;fillOpacity=100;strokeColor=light-dark(#000000,#FF33FF);fillColor=light-dark(#FFFFFF,#FFFFFF);strokeWidth=3;" parent="9E_fkBD__RbafPpFBMVh-55" vertex="1">
          <mxGeometry width="30" height="20" as="geometry">
            <mxRectangle width="30" height="20" as="alternateBounds" />
          </mxGeometry>
        </mxCell>
        <mxCell id="9E_fkBD__RbafPpFBMVh-57" value="" style="shape=partialRectangle;connectable=0;top=0;left=0;bottom=0;right=0;align=left;spacingLeft=6;overflow=hidden;whiteSpace=wrap;html=1;fillOpacity=100;strokeColor=light-dark(#000000,#FF33FF);fillColor=light-dark(#FFFFFF,#FFFFFF);strokeWidth=3;" parent="9E_fkBD__RbafPpFBMVh-55" vertex="1">
          <mxGeometry x="30" width="150" height="20" as="geometry">
            <mxRectangle width="150" height="20" as="alternateBounds" />
          </mxGeometry>
        </mxCell>
        <mxCell id="9E_fkBD__RbafPpFBMVh-59" value="Publishers" style="shape=table;startSize=40;container=1;collapsible=1;childLayout=tableLayout;fixedRows=1;rowLines=0;fontStyle=1;align=center;resizeLast=1;html=1;fillOpacity=100;strokeColor=light-dark(#000000,#FF33FF);fillColor=light-dark(#FFFFFF,#FFFFFF);fontColor=light-dark(#000000,#000000);strokeWidth=3;" parent="1" vertex="1">
          <mxGeometry x="80" y="380" width="140" height="160" as="geometry" />
        </mxCell>
        <mxCell id="9E_fkBD__RbafPpFBMVh-60" value="" style="shape=tableRow;horizontal=0;startSize=0;swimlaneHead=0;swimlaneBody=0;collapsible=0;dropTarget=0;points=[[0,0.5],[1,0.5]];portConstraint=eastwest;top=0;left=0;right=0;bottom=1;fillOpacity=100;strokeColor=light-dark(#000000,#FF33FF);fillColor=light-dark(#FFFFFF,#FFFFFF);strokeWidth=3;" parent="9E_fkBD__RbafPpFBMVh-59" vertex="1">
          <mxGeometry y="40" width="140" height="20" as="geometry" />
        </mxCell>
        <mxCell id="9E_fkBD__RbafPpFBMVh-61" value="PK" style="shape=partialRectangle;connectable=0;top=0;left=0;bottom=0;right=0;fontStyle=1;overflow=hidden;whiteSpace=wrap;html=1;fillOpacity=100;strokeColor=light-dark(#000000,#FF33FF);fillColor=light-dark(#FFFFFF,#FFFFFF);fontColor=light-dark(#000000,#000000);strokeWidth=3;" parent="9E_fkBD__RbafPpFBMVh-60" vertex="1">
          <mxGeometry width="30" height="20" as="geometry">
            <mxRectangle width="30" height="20" as="alternateBounds" />
          </mxGeometry>
        </mxCell>
        <mxCell id="9E_fkBD__RbafPpFBMVh-62" value="Publisher_ID" style="shape=partialRectangle;connectable=0;top=0;left=0;bottom=0;right=0;align=left;spacingLeft=6;fontStyle=5;overflow=hidden;whiteSpace=wrap;html=1;fillOpacity=100;strokeColor=light-dark(#000000,#FF33FF);fillColor=light-dark(#FFFFFF,#FFFFFF);fontColor=light-dark(#000000,#000000);strokeWidth=3;" parent="9E_fkBD__RbafPpFBMVh-60" vertex="1">
          <mxGeometry x="30" width="110" height="20" as="geometry">
            <mxRectangle width="110" height="20" as="alternateBounds" />
          </mxGeometry>
        </mxCell>
        <mxCell id="9E_fkBD__RbafPpFBMVh-63" value="" style="shape=tableRow;horizontal=0;startSize=0;swimlaneHead=0;swimlaneBody=0;collapsible=0;dropTarget=0;points=[[0,0.5],[1,0.5]];portConstraint=eastwest;top=0;left=0;right=0;bottom=0;fillOpacity=100;strokeColor=light-dark(#000000,#FF33FF);fillColor=light-dark(#FFFFFF,#FFFFFF);strokeWidth=3;" parent="9E_fkBD__RbafPpFBMVh-59" vertex="1">
          <mxGeometry y="60" width="140" height="30" as="geometry" />
        </mxCell>
        <mxCell id="9E_fkBD__RbafPpFBMVh-64" value="" style="shape=partialRectangle;connectable=0;top=0;left=0;bottom=0;right=0;editable=1;overflow=hidden;whiteSpace=wrap;html=1;fillOpacity=100;strokeColor=light-dark(#000000,#FF33FF);fillColor=light-dark(#FFFFFF,#FFFFFF);fontColor=light-dark(#000000,#000000);strokeWidth=3;" parent="9E_fkBD__RbafPpFBMVh-63" vertex="1">
          <mxGeometry width="30" height="30" as="geometry">
            <mxRectangle width="30" height="30" as="alternateBounds" />
          </mxGeometry>
        </mxCell>
        <mxCell id="9E_fkBD__RbafPpFBMVh-65" value="Publisher_name" style="shape=partialRectangle;connectable=0;top=0;left=0;bottom=0;right=0;align=left;spacingLeft=6;overflow=hidden;whiteSpace=wrap;html=1;fillOpacity=100;strokeColor=light-dark(#000000,#FF33FF);fillColor=light-dark(#FFFFFF,#FFFFFF);fontColor=light-dark(#000000,#000000);strokeWidth=3;" parent="9E_fkBD__RbafPpFBMVh-63" vertex="1">
          <mxGeometry x="30" width="110" height="30" as="geometry">
            <mxRectangle width="110" height="30" as="alternateBounds" />
          </mxGeometry>
        </mxCell>
        <mxCell id="9E_fkBD__RbafPpFBMVh-66" value="" style="shape=tableRow;horizontal=0;startSize=0;swimlaneHead=0;swimlaneBody=0;collapsible=0;dropTarget=0;points=[[0,0.5],[1,0.5]];portConstraint=eastwest;top=0;left=0;right=0;bottom=0;fillOpacity=100;strokeColor=light-dark(#000000,#FF33FF);fillColor=light-dark(#FFFFFF,#FFFFFF);strokeWidth=3;" parent="9E_fkBD__RbafPpFBMVh-59" vertex="1">
          <mxGeometry y="90" width="140" height="20" as="geometry" />
        </mxCell>
        <mxCell id="9E_fkBD__RbafPpFBMVh-67" value="" style="shape=partialRectangle;connectable=0;top=0;left=0;bottom=0;right=0;editable=1;overflow=hidden;whiteSpace=wrap;html=1;fillOpacity=100;strokeColor=light-dark(#000000,#FF33FF);fillColor=light-dark(#FFFFFF,#FFFFFF);fontColor=light-dark(#000000,#000000);strokeWidth=3;" parent="9E_fkBD__RbafPpFBMVh-66" vertex="1">
          <mxGeometry width="30" height="20" as="geometry">
            <mxRectangle width="30" height="20" as="alternateBounds" />
          </mxGeometry>
        </mxCell>
        <mxCell id="9E_fkBD__RbafPpFBMVh-68" value="Email" style="shape=partialRectangle;connectable=0;top=0;left=0;bottom=0;right=0;align=left;spacingLeft=6;overflow=hidden;whiteSpace=wrap;html=1;fillOpacity=100;strokeColor=light-dark(#000000,#FF33FF);fillColor=light-dark(#FFFFFF,#FFFFFF);fontColor=light-dark(#000000,#000000);strokeWidth=3;" parent="9E_fkBD__RbafPpFBMVh-66" vertex="1">
          <mxGeometry x="30" width="110" height="20" as="geometry">
            <mxRectangle width="110" height="20" as="alternateBounds" />
          </mxGeometry>
        </mxCell>
        <mxCell id="9E_fkBD__RbafPpFBMVh-69" value="" style="shape=tableRow;horizontal=0;startSize=0;swimlaneHead=0;swimlaneBody=0;collapsible=0;dropTarget=0;points=[[0,0.5],[1,0.5]];portConstraint=eastwest;top=0;left=0;right=0;bottom=0;fillOpacity=100;strokeColor=light-dark(#000000,#FF33FF);fillColor=light-dark(#FFFFFF,#FFFFFF);strokeWidth=3;" parent="9E_fkBD__RbafPpFBMVh-59" vertex="1">
          <mxGeometry y="110" width="140" height="30" as="geometry" />
        </mxCell>
        <mxCell id="9E_fkBD__RbafPpFBMVh-70" value="" style="shape=partialRectangle;connectable=0;top=0;left=0;bottom=0;right=0;editable=1;overflow=hidden;whiteSpace=wrap;html=1;fillOpacity=100;strokeColor=light-dark(#000000,#FF33FF);fillColor=light-dark(#FFFFFF,#FFFFFF);fontColor=light-dark(#000000,#000000);strokeWidth=3;" parent="9E_fkBD__RbafPpFBMVh-69" vertex="1">
          <mxGeometry width="30" height="30" as="geometry">
            <mxRectangle width="30" height="30" as="alternateBounds" />
          </mxGeometry>
        </mxCell>
        <mxCell id="9E_fkBD__RbafPpFBMVh-71" value="Phone&lt;div&gt;Address&lt;/div&gt;" style="shape=partialRectangle;connectable=0;top=0;left=0;bottom=0;right=0;align=left;spacingLeft=6;overflow=hidden;whiteSpace=wrap;html=1;fillOpacity=100;strokeColor=light-dark(#000000,#FF33FF);fillColor=light-dark(#FFFFFF,#FFFFFF);fontColor=light-dark(#000000,#000000);strokeWidth=3;" parent="9E_fkBD__RbafPpFBMVh-69" vertex="1">
          <mxGeometry x="30" width="110" height="30" as="geometry">
            <mxRectangle width="110" height="30" as="alternateBounds" />
          </mxGeometry>
        </mxCell>
        <mxCell id="9E_fkBD__RbafPpFBMVh-14" value="Book_author" style="shape=table;startSize=30;container=1;collapsible=1;childLayout=tableLayout;fixedRows=1;rowLines=0;fontStyle=1;align=center;resizeLast=1;html=1;strokeColor=light-dark(#000000,#FF33FF);fontColor=light-dark(#000000,#000000);fillColor=light-dark(#FFFFFF,#FFFFFF);strokeWidth=3;" parent="1" vertex="1">
          <mxGeometry x="625" y="130" width="130" height="120" as="geometry" />
        </mxCell>
        <mxCell id="9E_fkBD__RbafPpFBMVh-15" value="" style="shape=tableRow;horizontal=0;startSize=0;swimlaneHead=0;swimlaneBody=0;collapsible=0;dropTarget=0;points=[[0,0.5],[1,0.5]];portConstraint=eastwest;top=0;left=0;right=0;bottom=1;strokeColor=light-dark(#000000,#FF33FF);strokeWidth=3;" parent="9E_fkBD__RbafPpFBMVh-14" vertex="1">
          <mxGeometry y="30" width="130" height="30" as="geometry" />
        </mxCell>
        <mxCell id="9E_fkBD__RbafPpFBMVh-16" value="FK" style="shape=partialRectangle;connectable=0;top=0;left=0;bottom=0;right=0;fontStyle=1;overflow=hidden;whiteSpace=wrap;html=1;strokeColor=light-dark(#000000,#FF33FF);fontColor=light-dark(#000000,#000000);fillColor=light-dark(#FFFFFF,#FFFFFF);strokeWidth=3;" parent="9E_fkBD__RbafPpFBMVh-15" vertex="1">
          <mxGeometry width="30" height="30" as="geometry">
            <mxRectangle width="30" height="30" as="alternateBounds" />
          </mxGeometry>
        </mxCell>
        <mxCell id="9E_fkBD__RbafPpFBMVh-17" value="Book_ID" style="shape=partialRectangle;connectable=0;top=0;left=0;bottom=0;right=0;align=left;spacingLeft=6;fontStyle=5;overflow=hidden;whiteSpace=wrap;html=1;strokeColor=light-dark(#000000,#FF33FF);fontColor=light-dark(#000000,#000000);fillColor=light-dark(#FFFFFF,#FFFFFF);strokeWidth=3;" parent="9E_fkBD__RbafPpFBMVh-15" vertex="1">
          <mxGeometry x="30" width="100" height="30" as="geometry">
            <mxRectangle width="100" height="30" as="alternateBounds" />
          </mxGeometry>
        </mxCell>
        <mxCell id="9E_fkBD__RbafPpFBMVh-18" value="" style="shape=tableRow;horizontal=0;startSize=0;swimlaneHead=0;swimlaneBody=0;collapsible=0;dropTarget=0;points=[[0,0.5],[1,0.5]];portConstraint=eastwest;top=0;left=0;right=0;bottom=0;strokeColor=light-dark(#000000,#FF33FF);strokeWidth=3;" parent="9E_fkBD__RbafPpFBMVh-14" vertex="1">
          <mxGeometry y="60" width="130" height="20" as="geometry" />
        </mxCell>
        <mxCell id="9E_fkBD__RbafPpFBMVh-19" value="&lt;b&gt;FK&lt;/b&gt;" style="shape=partialRectangle;connectable=0;top=0;left=0;bottom=0;right=0;editable=1;overflow=hidden;whiteSpace=wrap;html=1;strokeColor=light-dark(#000000,#FF33FF);fontColor=light-dark(#000000,#000000);fillColor=light-dark(#FFFFFF,#FFFFFF);strokeWidth=3;" parent="9E_fkBD__RbafPpFBMVh-18" vertex="1">
          <mxGeometry width="30" height="20" as="geometry">
            <mxRectangle width="30" height="20" as="alternateBounds" />
          </mxGeometry>
        </mxCell>
        <mxCell id="9E_fkBD__RbafPpFBMVh-20" value="Author_ID" style="shape=partialRectangle;connectable=0;top=0;left=0;bottom=0;right=0;align=left;spacingLeft=6;overflow=hidden;whiteSpace=wrap;html=1;strokeColor=light-dark(#000000,#FF33FF);fontColor=light-dark(#000000,#000000);fillColor=light-dark(#FFFFFF,#FFFFFF);strokeWidth=3;" parent="9E_fkBD__RbafPpFBMVh-18" vertex="1">
          <mxGeometry x="30" width="100" height="20" as="geometry">
            <mxRectangle width="100" height="20" as="alternateBounds" />
          </mxGeometry>
        </mxCell>
        <mxCell id="9E_fkBD__RbafPpFBMVh-21" value="" style="shape=tableRow;horizontal=0;startSize=0;swimlaneHead=0;swimlaneBody=0;collapsible=0;dropTarget=0;points=[[0,0.5],[1,0.5]];portConstraint=eastwest;top=0;left=0;right=0;bottom=0;strokeColor=light-dark(#000000,#FF33FF);strokeWidth=3;" parent="9E_fkBD__RbafPpFBMVh-14" vertex="1">
          <mxGeometry y="80" width="130" height="20" as="geometry" />
        </mxCell>
        <mxCell id="9E_fkBD__RbafPpFBMVh-22" value="" style="shape=partialRectangle;connectable=0;top=0;left=0;bottom=0;right=0;editable=1;overflow=hidden;whiteSpace=wrap;html=1;strokeColor=light-dark(#000000,#FF33FF);fontColor=light-dark(#000000,#000000);fillColor=light-dark(#FFFFFF,#FFFFFF);strokeWidth=3;" parent="9E_fkBD__RbafPpFBMVh-21" vertex="1">
          <mxGeometry width="30" height="20" as="geometry">
            <mxRectangle width="30" height="20" as="alternateBounds" />
          </mxGeometry>
        </mxCell>
        <mxCell id="9E_fkBD__RbafPpFBMVh-23" value="Row 2" style="shape=partialRectangle;connectable=0;top=0;left=0;bottom=0;right=0;align=left;spacingLeft=6;overflow=hidden;whiteSpace=wrap;html=1;strokeColor=light-dark(#000000,#FF33FF);fontColor=light-dark(#000000,#000000);fillColor=light-dark(#FFFFFF,#FFFFFF);strokeWidth=3;" parent="9E_fkBD__RbafPpFBMVh-21" vertex="1">
          <mxGeometry x="30" width="100" height="20" as="geometry">
            <mxRectangle width="100" height="20" as="alternateBounds" />
          </mxGeometry>
        </mxCell>
        <mxCell id="9E_fkBD__RbafPpFBMVh-24" value="" style="shape=tableRow;horizontal=0;startSize=0;swimlaneHead=0;swimlaneBody=0;collapsible=0;dropTarget=0;points=[[0,0.5],[1,0.5]];portConstraint=eastwest;top=0;left=0;right=0;bottom=0;fillOpacity=100;strokeColor=light-dark(#000000,#FF33FF);strokeWidth=3;" parent="9E_fkBD__RbafPpFBMVh-14" vertex="1">
          <mxGeometry y="100" width="130" height="20" as="geometry" />
        </mxCell>
        <mxCell id="9E_fkBD__RbafPpFBMVh-25" value="" style="shape=partialRectangle;connectable=0;top=0;left=0;bottom=0;right=0;editable=1;overflow=hidden;whiteSpace=wrap;html=1;fillOpacity=100;strokeColor=light-dark(#000000,#FF33FF);fontColor=light-dark(#000000,#000000);fillColor=light-dark(#FFFFFF,#FFFFFF);strokeWidth=3;" parent="9E_fkBD__RbafPpFBMVh-24" vertex="1">
          <mxGeometry width="30" height="20" as="geometry">
            <mxRectangle width="30" height="20" as="alternateBounds" />
          </mxGeometry>
        </mxCell>
        <mxCell id="9E_fkBD__RbafPpFBMVh-26" value="Row 3" style="shape=partialRectangle;connectable=0;top=0;left=0;bottom=0;right=0;align=left;spacingLeft=6;overflow=hidden;whiteSpace=wrap;html=1;fillOpacity=100;strokeColor=light-dark(#000000,#FF33FF);fontColor=light-dark(#000000,#000000);fillColor=light-dark(#FFFFFF,#FFFFFF);strokeWidth=3;" parent="9E_fkBD__RbafPpFBMVh-24" vertex="1">
          <mxGeometry x="30" width="100" height="20" as="geometry">
            <mxRectangle width="100" height="20" as="alternateBounds" />
          </mxGeometry>
        </mxCell>
        <mxCell id="9E_fkBD__RbafPpFBMVh-72" value="Customers" style="shape=table;startSize=30;container=1;collapsible=1;childLayout=tableLayout;fixedRows=1;rowLines=0;fontStyle=1;align=center;resizeLast=1;html=1;fillOpacity=100;strokeColor=light-dark(#000000,#FF33FF);fontColor=light-dark(#000000,#000000);fillColor=light-dark(#FFFFFF,#FFFFFF);strokeWidth=3;" parent="1" vertex="1">
          <mxGeometry x="440" y="310" width="140" height="130" as="geometry" />
        </mxCell>
        <mxCell id="9E_fkBD__RbafPpFBMVh-73" value="" style="shape=tableRow;horizontal=0;startSize=0;swimlaneHead=0;swimlaneBody=0;collapsible=0;dropTarget=0;points=[[0,0.5],[1,0.5]];portConstraint=eastwest;top=0;left=0;right=0;bottom=1;fillOpacity=100;strokeColor=light-dark(#000000,#FF33FF);strokeWidth=3;" parent="9E_fkBD__RbafPpFBMVh-72" vertex="1">
          <mxGeometry y="30" width="140" height="30" as="geometry" />
        </mxCell>
        <mxCell id="9E_fkBD__RbafPpFBMVh-74" value="PK" style="shape=partialRectangle;connectable=0;top=0;left=0;bottom=0;right=0;fontStyle=1;overflow=hidden;whiteSpace=wrap;html=1;fillOpacity=100;strokeColor=light-dark(#000000,#FF33FF);fillColor=light-dark(#FFFFFF,#FFFFFF);fontColor=light-dark(#000000,#000000);strokeWidth=3;" parent="9E_fkBD__RbafPpFBMVh-73" vertex="1">
          <mxGeometry width="30" height="30" as="geometry">
            <mxRectangle width="30" height="30" as="alternateBounds" />
          </mxGeometry>
        </mxCell>
        <mxCell id="9E_fkBD__RbafPpFBMVh-75" value="Customer_ID" style="shape=partialRectangle;connectable=0;top=0;left=0;bottom=0;right=0;align=left;spacingLeft=6;fontStyle=5;overflow=hidden;whiteSpace=wrap;html=1;fillOpacity=100;strokeColor=light-dark(#000000,#FF33FF);fillColor=light-dark(#FFFFFF,#FFFFFF);fontColor=light-dark(#000000,#000000);strokeWidth=3;" parent="9E_fkBD__RbafPpFBMVh-73" vertex="1">
          <mxGeometry x="30" width="110" height="30" as="geometry">
            <mxRectangle width="110" height="30" as="alternateBounds" />
          </mxGeometry>
        </mxCell>
        <mxCell id="9E_fkBD__RbafPpFBMVh-76" value="" style="shape=tableRow;horizontal=0;startSize=0;swimlaneHead=0;swimlaneBody=0;collapsible=0;dropTarget=0;points=[[0,0.5],[1,0.5]];portConstraint=eastwest;top=0;left=0;right=0;bottom=0;fillOpacity=100;strokeColor=light-dark(#000000,#FF33FF);strokeWidth=3;" parent="9E_fkBD__RbafPpFBMVh-72" vertex="1">
          <mxGeometry y="60" width="140" height="30" as="geometry" />
        </mxCell>
        <mxCell id="9E_fkBD__RbafPpFBMVh-77" value="" style="shape=partialRectangle;connectable=0;top=0;left=0;bottom=0;right=0;editable=1;overflow=hidden;whiteSpace=wrap;html=1;fillOpacity=100;strokeColor=light-dark(#000000,#FF33FF);fillColor=light-dark(#FFFFFF,#FFFFFF);fontColor=light-dark(#000000,#000000);strokeWidth=3;" parent="9E_fkBD__RbafPpFBMVh-76" vertex="1">
          <mxGeometry width="30" height="30" as="geometry">
            <mxRectangle width="30" height="30" as="alternateBounds" />
          </mxGeometry>
        </mxCell>
        <mxCell id="9E_fkBD__RbafPpFBMVh-78" value="customerName&lt;div&gt;gender&lt;/div&gt;" style="shape=partialRectangle;connectable=0;top=0;left=0;bottom=0;right=0;align=left;spacingLeft=6;overflow=hidden;whiteSpace=wrap;html=1;fillOpacity=100;strokeColor=light-dark(#000000,#FF33FF);fillColor=light-dark(#FFFFFF,#FFFFFF);fontColor=light-dark(#000000,#000000);strokeWidth=3;" parent="9E_fkBD__RbafPpFBMVh-76" vertex="1">
          <mxGeometry x="30" width="110" height="30" as="geometry">
            <mxRectangle width="110" height="30" as="alternateBounds" />
          </mxGeometry>
        </mxCell>
        <mxCell id="9E_fkBD__RbafPpFBMVh-79" value="" style="shape=tableRow;horizontal=0;startSize=0;swimlaneHead=0;swimlaneBody=0;collapsible=0;dropTarget=0;points=[[0,0.5],[1,0.5]];portConstraint=eastwest;top=0;left=0;right=0;bottom=0;fillOpacity=100;strokeColor=light-dark(#000000,#FF33FF);strokeWidth=3;" parent="9E_fkBD__RbafPpFBMVh-72" vertex="1">
          <mxGeometry y="90" width="140" height="20" as="geometry" />
        </mxCell>
        <mxCell id="9E_fkBD__RbafPpFBMVh-80" value="" style="shape=partialRectangle;connectable=0;top=0;left=0;bottom=0;right=0;editable=1;overflow=hidden;whiteSpace=wrap;html=1;fillOpacity=100;strokeColor=light-dark(#000000,#FF33FF);fillColor=light-dark(#FFFFFF,#FFFFFF);fontColor=light-dark(#000000,#000000);strokeWidth=3;" parent="9E_fkBD__RbafPpFBMVh-79" vertex="1">
          <mxGeometry width="30" height="20" as="geometry">
            <mxRectangle width="30" height="20" as="alternateBounds" />
          </mxGeometry>
        </mxCell>
        <mxCell id="9E_fkBD__RbafPpFBMVh-81" value="Phone" style="shape=partialRectangle;connectable=0;top=0;left=0;bottom=0;right=0;align=left;spacingLeft=6;overflow=hidden;whiteSpace=wrap;html=1;fillOpacity=100;strokeColor=light-dark(#000000,#FF33FF);fillColor=light-dark(#FFFFFF,#FFFFFF);fontColor=light-dark(#000000,#000000);strokeWidth=3;" parent="9E_fkBD__RbafPpFBMVh-79" vertex="1">
          <mxGeometry x="30" width="110" height="20" as="geometry">
            <mxRectangle width="110" height="20" as="alternateBounds" />
          </mxGeometry>
        </mxCell>
        <mxCell id="9E_fkBD__RbafPpFBMVh-82" value="" style="shape=tableRow;horizontal=0;startSize=0;swimlaneHead=0;swimlaneBody=0;collapsible=0;dropTarget=0;points=[[0,0.5],[1,0.5]];portConstraint=eastwest;top=0;left=0;right=0;bottom=0;fillOpacity=100;strokeColor=light-dark(#000000,#FF33FF);strokeWidth=3;" parent="9E_fkBD__RbafPpFBMVh-72" vertex="1">
          <mxGeometry y="110" width="140" height="20" as="geometry" />
        </mxCell>
        <mxCell id="9E_fkBD__RbafPpFBMVh-83" value="" style="shape=partialRectangle;connectable=0;top=0;left=0;bottom=0;right=0;editable=1;overflow=hidden;whiteSpace=wrap;html=1;fillOpacity=100;strokeColor=light-dark(#000000,#FF33FF);fillColor=light-dark(#FFFFFF,#FFFFFF);fontColor=light-dark(#000000,#000000);strokeWidth=3;" parent="9E_fkBD__RbafPpFBMVh-82" vertex="1">
          <mxGeometry width="30" height="20" as="geometry">
            <mxRectangle width="30" height="20" as="alternateBounds" />
          </mxGeometry>
        </mxCell>
        <mxCell id="9E_fkBD__RbafPpFBMVh-84" value="Email" style="shape=partialRectangle;connectable=0;top=0;left=0;bottom=0;right=0;align=left;spacingLeft=6;overflow=hidden;whiteSpace=wrap;html=1;fillOpacity=100;strokeColor=light-dark(#000000,#FF33FF);fillColor=light-dark(#FFFFFF,#FFFFFF);fontColor=light-dark(#000000,#000000);strokeWidth=3;" parent="9E_fkBD__RbafPpFBMVh-82" vertex="1">
          <mxGeometry x="30" width="110" height="20" as="geometry">
            <mxRectangle width="110" height="20" as="alternateBounds" />
          </mxGeometry>
        </mxCell>
        <mxCell id="9E_fkBD__RbafPpFBMVh-100" value="Addresses" style="shape=table;startSize=30;container=1;collapsible=1;childLayout=tableLayout;fixedRows=1;rowLines=0;fontStyle=1;align=center;resizeLast=1;html=1;fillOpacity=100;strokeColor=light-dark(#000000,#FF33FF);fillColor=light-dark(#FFFFFF,#FFFFFF);fontColor=light-dark(#000000,#000000);strokeWidth=3;" parent="1" vertex="1">
          <mxGeometry x="710" y="300" width="150" height="180" as="geometry" />
        </mxCell>
        <mxCell id="9E_fkBD__RbafPpFBMVh-101" value="" style="shape=tableRow;horizontal=0;startSize=0;swimlaneHead=0;swimlaneBody=0;collapsible=0;dropTarget=0;points=[[0,0.5],[1,0.5]];portConstraint=eastwest;top=0;left=0;right=0;bottom=1;fillOpacity=100;strokeColor=light-dark(#000000,#FF33FF);strokeWidth=3;" parent="9E_fkBD__RbafPpFBMVh-100" vertex="1">
          <mxGeometry y="30" width="150" height="30" as="geometry" />
        </mxCell>
        <mxCell id="9E_fkBD__RbafPpFBMVh-102" value="PK" style="shape=partialRectangle;connectable=0;top=0;left=0;bottom=0;right=0;fontStyle=1;overflow=hidden;whiteSpace=wrap;html=1;fillOpacity=100;strokeColor=light-dark(#000000,#FF33FF);fontColor=light-dark(#000000,#000000);fillColor=light-dark(#FFFFFF,#FFFFFF);strokeWidth=3;" parent="9E_fkBD__RbafPpFBMVh-101" vertex="1">
          <mxGeometry width="30" height="30" as="geometry">
            <mxRectangle width="30" height="30" as="alternateBounds" />
          </mxGeometry>
        </mxCell>
        <mxCell id="9E_fkBD__RbafPpFBMVh-103" value="Address_ID" style="shape=partialRectangle;connectable=0;top=0;left=0;bottom=0;right=0;align=left;spacingLeft=6;fontStyle=5;overflow=hidden;whiteSpace=wrap;html=1;fillOpacity=100;strokeColor=light-dark(#000000,#FF33FF);fontColor=light-dark(#000000,#000000);fillColor=light-dark(#FFFFFF,#FFFFFF);strokeWidth=3;" parent="9E_fkBD__RbafPpFBMVh-101" vertex="1">
          <mxGeometry x="30" width="120" height="30" as="geometry">
            <mxRectangle width="120" height="30" as="alternateBounds" />
          </mxGeometry>
        </mxCell>
        <mxCell id="9E_fkBD__RbafPpFBMVh-104" value="" style="shape=tableRow;horizontal=0;startSize=0;swimlaneHead=0;swimlaneBody=0;collapsible=0;dropTarget=0;points=[[0,0.5],[1,0.5]];portConstraint=eastwest;top=0;left=0;right=0;bottom=0;fillOpacity=100;strokeColor=light-dark(#000000,#FF33FF);strokeWidth=3;" parent="9E_fkBD__RbafPpFBMVh-100" vertex="1">
          <mxGeometry y="60" width="150" height="30" as="geometry" />
        </mxCell>
        <mxCell id="9E_fkBD__RbafPpFBMVh-105" value="&lt;b&gt;FK&lt;/b&gt;" style="shape=partialRectangle;connectable=0;top=0;left=0;bottom=0;right=0;editable=1;overflow=hidden;whiteSpace=wrap;html=1;fillOpacity=100;strokeColor=light-dark(#000000,#FF33FF);fontColor=light-dark(#000000,#000000);fillColor=light-dark(#FFFFFF,#FFFFFF);strokeWidth=3;" parent="9E_fkBD__RbafPpFBMVh-104" vertex="1">
          <mxGeometry width="30" height="30" as="geometry">
            <mxRectangle width="30" height="30" as="alternateBounds" />
          </mxGeometry>
        </mxCell>
        <mxCell id="9E_fkBD__RbafPpFBMVh-106" value="Country_ID" style="shape=partialRectangle;connectable=0;top=0;left=0;bottom=0;right=0;align=left;spacingLeft=6;overflow=hidden;whiteSpace=wrap;html=1;fillOpacity=100;strokeColor=light-dark(#000000,#FF33FF);fontColor=light-dark(#000000,#000000);fillColor=light-dark(#FFFFFF,#FFFFFF);strokeWidth=3;" parent="9E_fkBD__RbafPpFBMVh-104" vertex="1">
          <mxGeometry x="30" width="120" height="30" as="geometry">
            <mxRectangle width="120" height="30" as="alternateBounds" />
          </mxGeometry>
        </mxCell>
        <mxCell id="9E_fkBD__RbafPpFBMVh-107" value="" style="shape=tableRow;horizontal=0;startSize=0;swimlaneHead=0;swimlaneBody=0;collapsible=0;dropTarget=0;points=[[0,0.5],[1,0.5]];portConstraint=eastwest;top=0;left=0;right=0;bottom=0;fillOpacity=100;strokeColor=light-dark(#000000,#FF33FF);strokeWidth=3;" parent="9E_fkBD__RbafPpFBMVh-100" vertex="1">
          <mxGeometry y="90" width="150" height="30" as="geometry" />
        </mxCell>
        <mxCell id="9E_fkBD__RbafPpFBMVh-108" value="" style="shape=partialRectangle;connectable=0;top=0;left=0;bottom=0;right=0;editable=1;overflow=hidden;whiteSpace=wrap;html=1;fillOpacity=100;strokeColor=light-dark(#000000,#FF33FF);fontColor=light-dark(#000000,#000000);fillColor=light-dark(#FFFFFF,#FFFFFF);strokeWidth=3;" parent="9E_fkBD__RbafPpFBMVh-107" vertex="1">
          <mxGeometry width="30" height="30" as="geometry">
            <mxRectangle width="30" height="30" as="alternateBounds" />
          </mxGeometry>
        </mxCell>
        <mxCell id="9E_fkBD__RbafPpFBMVh-109" value="Street_number&lt;div&gt;street_name&lt;/div&gt;" style="shape=partialRectangle;connectable=0;top=0;left=0;bottom=0;right=0;align=left;spacingLeft=6;overflow=hidden;whiteSpace=wrap;html=1;fillOpacity=100;strokeColor=light-dark(#000000,#FF33FF);fontColor=light-dark(#000000,#000000);fillColor=light-dark(#FFFFFF,#FFFFFF);strokeWidth=3;" parent="9E_fkBD__RbafPpFBMVh-107" vertex="1">
          <mxGeometry x="30" width="120" height="30" as="geometry">
            <mxRectangle width="120" height="30" as="alternateBounds" />
          </mxGeometry>
        </mxCell>
        <mxCell id="9E_fkBD__RbafPpFBMVh-110" value="" style="shape=tableRow;horizontal=0;startSize=0;swimlaneHead=0;swimlaneBody=0;collapsible=0;dropTarget=0;points=[[0,0.5],[1,0.5]];portConstraint=eastwest;top=0;left=0;right=0;bottom=0;fillOpacity=100;strokeColor=light-dark(#000000,#FF33FF);strokeWidth=3;" parent="9E_fkBD__RbafPpFBMVh-100" vertex="1">
          <mxGeometry y="120" width="150" height="50" as="geometry" />
        </mxCell>
        <mxCell id="9E_fkBD__RbafPpFBMVh-111" value="" style="shape=partialRectangle;connectable=0;top=0;left=0;bottom=0;right=0;editable=1;overflow=hidden;whiteSpace=wrap;html=1;fillOpacity=100;strokeColor=light-dark(#000000,#FF33FF);fontColor=light-dark(#000000,#000000);fillColor=light-dark(#FFFFFF,#FFFFFF);strokeWidth=3;" parent="9E_fkBD__RbafPpFBMVh-110" vertex="1">
          <mxGeometry width="30" height="50" as="geometry">
            <mxRectangle width="30" height="50" as="alternateBounds" />
          </mxGeometry>
        </mxCell>
        <mxCell id="9E_fkBD__RbafPpFBMVh-112" value="City&lt;div&gt;Postal_code&lt;/div&gt;" style="shape=partialRectangle;connectable=0;top=0;left=0;bottom=0;right=0;align=left;spacingLeft=6;overflow=hidden;whiteSpace=wrap;html=1;fillOpacity=100;strokeColor=light-dark(#000000,#FF33FF);fontColor=light-dark(#000000,#000000);fillColor=light-dark(#FFFFFF,#FFFFFF);strokeWidth=3;" parent="9E_fkBD__RbafPpFBMVh-110" vertex="1">
          <mxGeometry x="30" width="120" height="50" as="geometry">
            <mxRectangle width="120" height="50" as="alternateBounds" />
          </mxGeometry>
        </mxCell>
        <mxCell id="9E_fkBD__RbafPpFBMVh-113" value="Countries" style="shape=table;startSize=30;container=1;collapsible=1;childLayout=tableLayout;fixedRows=1;rowLines=0;fontStyle=1;align=center;resizeLast=1;html=1;fillOpacity=100;strokeColor=light-dark(#000000,#FFFFFF);fontColor=light-dark(#000000,#000000);fillColor=light-dark(#FFFFFF,#FFFFFF);" parent="1" vertex="1">
          <mxGeometry x="940" y="320" width="140" height="130" as="geometry" />
        </mxCell>
        <mxCell id="9E_fkBD__RbafPpFBMVh-114" value="" style="shape=tableRow;horizontal=0;startSize=0;swimlaneHead=0;swimlaneBody=0;collapsible=0;dropTarget=0;points=[[0,0.5],[1,0.5]];portConstraint=eastwest;top=0;left=0;right=0;bottom=1;fillOpacity=100;strokeColor=light-dark(#000000,#FFFFFF);" parent="9E_fkBD__RbafPpFBMVh-113" vertex="1">
          <mxGeometry y="30" width="140" height="30" as="geometry" />
        </mxCell>
        <mxCell id="9E_fkBD__RbafPpFBMVh-115" value="PK" style="shape=partialRectangle;connectable=0;top=0;left=0;bottom=0;right=0;fontStyle=1;overflow=hidden;whiteSpace=wrap;html=1;fillOpacity=100;strokeColor=light-dark(#000000,#FF33FF);fillColor=light-dark(#FFFFFF,#FFFFFF);fontColor=light-dark(#000000,#000000);strokeWidth=3;" parent="9E_fkBD__RbafPpFBMVh-114" vertex="1">
          <mxGeometry width="30" height="30" as="geometry">
            <mxRectangle width="30" height="30" as="alternateBounds" />
          </mxGeometry>
        </mxCell>
        <mxCell id="9E_fkBD__RbafPpFBMVh-116" value="Country_ID" style="shape=partialRectangle;connectable=0;top=0;left=0;bottom=0;right=0;align=left;spacingLeft=6;fontStyle=5;overflow=hidden;whiteSpace=wrap;html=1;fillOpacity=100;strokeColor=light-dark(#000000,#FFFFFF);fillColor=light-dark(#FFFFFF,#FFFFFF);fontColor=light-dark(#000000,#000000);" parent="9E_fkBD__RbafPpFBMVh-114" vertex="1">
          <mxGeometry x="30" width="110" height="30" as="geometry">
            <mxRectangle width="110" height="30" as="alternateBounds" />
          </mxGeometry>
        </mxCell>
        <mxCell id="9E_fkBD__RbafPpFBMVh-117" value="" style="shape=tableRow;horizontal=0;startSize=0;swimlaneHead=0;swimlaneBody=0;collapsible=0;dropTarget=0;points=[[0,0.5],[1,0.5]];portConstraint=eastwest;top=0;left=0;right=0;bottom=0;fillOpacity=100;strokeColor=light-dark(#000000,#FFFFFF);" parent="9E_fkBD__RbafPpFBMVh-113" vertex="1">
          <mxGeometry y="60" width="140" height="30" as="geometry" />
        </mxCell>
        <mxCell id="9E_fkBD__RbafPpFBMVh-118" value="" style="shape=partialRectangle;connectable=0;top=0;left=0;bottom=0;right=0;editable=1;overflow=hidden;whiteSpace=wrap;html=1;fillOpacity=100;strokeColor=light-dark(#000000,#FF33FF);fillColor=light-dark(#FFFFFF,#FFFFFF);fontColor=light-dark(#000000,#000000);strokeWidth=3;" parent="9E_fkBD__RbafPpFBMVh-117" vertex="1">
          <mxGeometry width="30" height="30" as="geometry">
            <mxRectangle width="30" height="30" as="alternateBounds" />
          </mxGeometry>
        </mxCell>
        <mxCell id="9E_fkBD__RbafPpFBMVh-119" value="country_code" style="shape=partialRectangle;connectable=0;top=0;left=0;bottom=0;right=0;align=left;spacingLeft=6;overflow=hidden;whiteSpace=wrap;html=1;fillOpacity=100;strokeColor=light-dark(#000000,#FFFFFF);fillColor=light-dark(#FFFFFF,#FFFFFF);fontColor=light-dark(#000000,#000000);" parent="9E_fkBD__RbafPpFBMVh-117" vertex="1">
          <mxGeometry x="30" width="110" height="30" as="geometry">
            <mxRectangle width="110" height="30" as="alternateBounds" />
          </mxGeometry>
        </mxCell>
        <mxCell id="9E_fkBD__RbafPpFBMVh-120" value="" style="shape=tableRow;horizontal=0;startSize=0;swimlaneHead=0;swimlaneBody=0;collapsible=0;dropTarget=0;points=[[0,0.5],[1,0.5]];portConstraint=eastwest;top=0;left=0;right=0;bottom=0;fillOpacity=100;strokeColor=light-dark(#000000,#FFFFFF);" parent="9E_fkBD__RbafPpFBMVh-113" vertex="1">
          <mxGeometry y="90" width="140" height="20" as="geometry" />
        </mxCell>
        <mxCell id="9E_fkBD__RbafPpFBMVh-121" value="" style="shape=partialRectangle;connectable=0;top=0;left=0;bottom=0;right=0;editable=1;overflow=hidden;whiteSpace=wrap;html=1;fillOpacity=100;strokeColor=light-dark(#000000,#FF33FF);fillColor=light-dark(#FFFFFF,#FFFFFF);fontColor=light-dark(#000000,#000000);strokeWidth=3;" parent="9E_fkBD__RbafPpFBMVh-120" vertex="1">
          <mxGeometry width="30" height="20" as="geometry">
            <mxRectangle width="30" height="20" as="alternateBounds" />
          </mxGeometry>
        </mxCell>
        <mxCell id="9E_fkBD__RbafPpFBMVh-122" value="country_name" style="shape=partialRectangle;connectable=0;top=0;left=0;bottom=0;right=0;align=left;spacingLeft=6;overflow=hidden;whiteSpace=wrap;html=1;fillOpacity=100;strokeColor=light-dark(#000000,#FFFFFF);fillColor=light-dark(#FFFFFF,#FFFFFF);fontColor=light-dark(#000000,#000000);" parent="9E_fkBD__RbafPpFBMVh-120" vertex="1">
          <mxGeometry x="30" width="110" height="20" as="geometry">
            <mxRectangle width="110" height="20" as="alternateBounds" />
          </mxGeometry>
        </mxCell>
        <mxCell id="9E_fkBD__RbafPpFBMVh-123" value="" style="shape=tableRow;horizontal=0;startSize=0;swimlaneHead=0;swimlaneBody=0;collapsible=0;dropTarget=0;points=[[0,0.5],[1,0.5]];portConstraint=eastwest;top=0;left=0;right=0;bottom=0;fillOpacity=100;strokeColor=light-dark(#000000,#FFFFFF);" parent="9E_fkBD__RbafPpFBMVh-113" vertex="1">
          <mxGeometry y="110" width="140" height="20" as="geometry" />
        </mxCell>
        <mxCell id="9E_fkBD__RbafPpFBMVh-124" value="" style="shape=partialRectangle;connectable=0;top=0;left=0;bottom=0;right=0;editable=1;overflow=hidden;whiteSpace=wrap;html=1;fillOpacity=100;strokeColor=light-dark(#000000,#FF33FF);fillColor=light-dark(#FFFFFF,#FFFFFF);fontColor=light-dark(#000000,#000000);strokeWidth=3;" parent="9E_fkBD__RbafPpFBMVh-123" vertex="1">
          <mxGeometry width="30" height="20" as="geometry">
            <mxRectangle width="30" height="20" as="alternateBounds" />
          </mxGeometry>
        </mxCell>
        <mxCell id="9E_fkBD__RbafPpFBMVh-125" value="" style="shape=partialRectangle;connectable=0;top=0;left=0;bottom=0;right=0;align=left;spacingLeft=6;overflow=hidden;whiteSpace=wrap;html=1;fillOpacity=100;strokeColor=light-dark(#000000,#FFFFFF);fillColor=light-dark(#FFFFFF,#FFFFFF);fontColor=light-dark(#000000,#000000);" parent="9E_fkBD__RbafPpFBMVh-123" vertex="1">
          <mxGeometry x="30" width="110" height="20" as="geometry">
            <mxRectangle width="110" height="20" as="alternateBounds" />
          </mxGeometry>
        </mxCell>
        <mxCell id="9E_fkBD__RbafPpFBMVh-128" value="" style="edgeStyle=entityRelationEdgeStyle;fontSize=12;html=1;endArrow=ERmandOne;startArrow=ERmandOne;rounded=0;entryX=0;entryY=0.5;entryDx=0;entryDy=0;exitX=0.994;exitY=0.167;exitDx=0;exitDy=0;exitPerimeter=0;fillOpacity=100;fontColor=light-dark(#000000,#000000);strokeColor=light-dark(#000000,#FF33FF);strokeWidth=3;" parent="1" source="9E_fkBD__RbafPpFBMVh-107" target="9E_fkBD__RbafPpFBMVh-117" edge="1">
          <mxGeometry width="100" height="100" relative="1" as="geometry">
            <mxPoint x="970" y="600" as="sourcePoint" />
            <mxPoint x="1020" y="590" as="targetPoint" />
            <Array as="points">
              <mxPoint x="960" y="600" />
            </Array>
          </mxGeometry>
        </mxCell>
        <mxCell id="9E_fkBD__RbafPpFBMVh-129" value="Address_status" style="shape=table;startSize=30;container=1;collapsible=1;childLayout=tableLayout;fixedRows=1;rowLines=0;fontStyle=1;align=center;resizeLast=1;html=1;fillOpacity=100;strokeColor=light-dark(#000000,#FF33FF);fontColor=light-dark(#000000,#000000);fillColor=light-dark(#FFFFFF,#FFFFFF);strokeWidth=3;" parent="1" vertex="1">
          <mxGeometry x="650" y="610" width="240" height="130" as="geometry" />
        </mxCell>
        <mxCell id="9E_fkBD__RbafPpFBMVh-130" value="" style="shape=tableRow;horizontal=0;startSize=0;swimlaneHead=0;swimlaneBody=0;collapsible=0;dropTarget=0;points=[[0,0.5],[1,0.5]];portConstraint=eastwest;top=0;left=0;right=0;bottom=1;fillOpacity=100;strokeColor=light-dark(#000000,#FF33FF);strokeWidth=3;" parent="9E_fkBD__RbafPpFBMVh-129" vertex="1">
          <mxGeometry y="30" width="240" height="30" as="geometry" />
        </mxCell>
        <mxCell id="9E_fkBD__RbafPpFBMVh-131" value="PK" style="shape=partialRectangle;connectable=0;top=0;left=0;bottom=0;right=0;fontStyle=1;overflow=hidden;whiteSpace=wrap;html=1;fillOpacity=100;strokeColor=light-dark(#000000,#FF33FF);fillColor=light-dark(#FFFFFF,#FFFFFF);fontColor=light-dark(#000000,#000000);strokeWidth=3;" parent="9E_fkBD__RbafPpFBMVh-130" vertex="1">
          <mxGeometry width="30" height="30" as="geometry">
            <mxRectangle width="30" height="30" as="alternateBounds" />
          </mxGeometry>
        </mxCell>
        <mxCell id="9E_fkBD__RbafPpFBMVh-132" value="status_ID" style="shape=partialRectangle;connectable=0;top=0;left=0;bottom=0;right=0;align=left;spacingLeft=6;fontStyle=5;overflow=hidden;whiteSpace=wrap;html=1;fillOpacity=100;strokeColor=light-dark(#000000,#FF33FF);fillColor=light-dark(#FFFFFF,#FFFFFF);fontColor=light-dark(#000000,#000000);strokeWidth=3;" parent="9E_fkBD__RbafPpFBMVh-130" vertex="1">
          <mxGeometry x="30" width="210" height="30" as="geometry">
            <mxRectangle width="210" height="30" as="alternateBounds" />
          </mxGeometry>
        </mxCell>
        <mxCell id="9E_fkBD__RbafPpFBMVh-133" value="" style="shape=tableRow;horizontal=0;startSize=0;swimlaneHead=0;swimlaneBody=0;collapsible=0;dropTarget=0;points=[[0,0.5],[1,0.5]];portConstraint=eastwest;top=0;left=0;right=0;bottom=0;fillOpacity=100;strokeColor=light-dark(#000000,#FF33FF);strokeWidth=3;" parent="9E_fkBD__RbafPpFBMVh-129" vertex="1">
          <mxGeometry y="60" width="240" height="30" as="geometry" />
        </mxCell>
        <mxCell id="9E_fkBD__RbafPpFBMVh-134" value="" style="shape=partialRectangle;connectable=0;top=0;left=0;bottom=0;right=0;editable=1;overflow=hidden;whiteSpace=wrap;html=1;fillOpacity=100;strokeColor=light-dark(#000000,#FF33FF);fillColor=light-dark(#FFFFFF,#FFFFFF);fontColor=light-dark(#000000,#000000);strokeWidth=3;" parent="9E_fkBD__RbafPpFBMVh-133" vertex="1">
          <mxGeometry width="30" height="30" as="geometry">
            <mxRectangle width="30" height="30" as="alternateBounds" />
          </mxGeometry>
        </mxCell>
        <mxCell id="9E_fkBD__RbafPpFBMVh-135" value="statusDescription(e.g current, old)" style="shape=partialRectangle;connectable=0;top=0;left=0;bottom=0;right=0;align=left;spacingLeft=6;overflow=hidden;whiteSpace=wrap;html=1;fillOpacity=100;strokeColor=light-dark(#000000,#FF33FF);fillColor=light-dark(#FFFFFF,#FFFFFF);fontColor=light-dark(#000000,#000000);strokeWidth=3;" parent="9E_fkBD__RbafPpFBMVh-133" vertex="1">
          <mxGeometry x="30" width="210" height="30" as="geometry">
            <mxRectangle width="210" height="30" as="alternateBounds" />
          </mxGeometry>
        </mxCell>
        <mxCell id="9E_fkBD__RbafPpFBMVh-136" value="" style="shape=tableRow;horizontal=0;startSize=0;swimlaneHead=0;swimlaneBody=0;collapsible=0;dropTarget=0;points=[[0,0.5],[1,0.5]];portConstraint=eastwest;top=0;left=0;right=0;bottom=0;fillOpacity=100;strokeColor=light-dark(#000000,#FF33FF);strokeWidth=3;" parent="9E_fkBD__RbafPpFBMVh-129" vertex="1">
          <mxGeometry y="90" width="240" height="20" as="geometry" />
        </mxCell>
        <mxCell id="9E_fkBD__RbafPpFBMVh-137" value="" style="shape=partialRectangle;connectable=0;top=0;left=0;bottom=0;right=0;editable=1;overflow=hidden;whiteSpace=wrap;html=1;fillOpacity=100;strokeColor=light-dark(#000000,#FF33FF);fillColor=light-dark(#FFFFFF,#FFFFFF);fontColor=light-dark(#000000,#000000);strokeWidth=3;" parent="9E_fkBD__RbafPpFBMVh-136" vertex="1">
          <mxGeometry width="30" height="20" as="geometry">
            <mxRectangle width="30" height="20" as="alternateBounds" />
          </mxGeometry>
        </mxCell>
        <mxCell id="9E_fkBD__RbafPpFBMVh-138" value="" style="shape=partialRectangle;connectable=0;top=0;left=0;bottom=0;right=0;align=left;spacingLeft=6;overflow=hidden;whiteSpace=wrap;html=1;fillOpacity=100;strokeColor=light-dark(#000000,#FF33FF);fillColor=light-dark(#FFFFFF,#FFFFFF);fontColor=light-dark(#000000,#000000);strokeWidth=3;" parent="9E_fkBD__RbafPpFBMVh-136" vertex="1">
          <mxGeometry x="30" width="210" height="20" as="geometry">
            <mxRectangle width="210" height="20" as="alternateBounds" />
          </mxGeometry>
        </mxCell>
        <mxCell id="9E_fkBD__RbafPpFBMVh-139" value="" style="shape=tableRow;horizontal=0;startSize=0;swimlaneHead=0;swimlaneBody=0;collapsible=0;dropTarget=0;points=[[0,0.5],[1,0.5]];portConstraint=eastwest;top=0;left=0;right=0;bottom=0;fillOpacity=100;strokeColor=light-dark(#000000,#FF33FF);strokeWidth=3;" parent="9E_fkBD__RbafPpFBMVh-129" vertex="1">
          <mxGeometry y="110" width="240" height="20" as="geometry" />
        </mxCell>
        <mxCell id="9E_fkBD__RbafPpFBMVh-140" value="" style="shape=partialRectangle;connectable=0;top=0;left=0;bottom=0;right=0;editable=1;overflow=hidden;whiteSpace=wrap;html=1;fillOpacity=100;strokeColor=light-dark(#000000,#FF33FF);fillColor=light-dark(#FFFFFF,#FFFFFF);fontColor=light-dark(#000000,#000000);strokeWidth=3;" parent="9E_fkBD__RbafPpFBMVh-139" vertex="1">
          <mxGeometry width="30" height="20" as="geometry">
            <mxRectangle width="30" height="20" as="alternateBounds" />
          </mxGeometry>
        </mxCell>
        <mxCell id="9E_fkBD__RbafPpFBMVh-141" value="" style="shape=partialRectangle;connectable=0;top=0;left=0;bottom=0;right=0;align=left;spacingLeft=6;overflow=hidden;whiteSpace=wrap;html=1;fillOpacity=100;strokeColor=light-dark(#000000,#FF33FF);fillColor=light-dark(#FFFFFF,#FFFFFF);fontColor=light-dark(#000000,#000000);strokeWidth=3;" parent="9E_fkBD__RbafPpFBMVh-139" vertex="1">
          <mxGeometry x="30" width="210" height="20" as="geometry">
            <mxRectangle width="210" height="20" as="alternateBounds" />
          </mxGeometry>
        </mxCell>
        <mxCell id="9E_fkBD__RbafPpFBMVh-142" value="" style="edgeStyle=entityRelationEdgeStyle;fontSize=12;html=1;endArrow=ERmandOne;startArrow=ERmandOne;rounded=0;fillOpacity=100;fontColor=light-dark(#000000,#000000);strokeColor=light-dark(#000000,#FF33FF);strokeWidth=3;" parent="1" source="9E_fkBD__RbafPpFBMVh-110" target="9E_fkBD__RbafPpFBMVh-129" edge="1">
          <mxGeometry width="100" height="100" relative="1" as="geometry">
            <mxPoint x="780" y="645" as="sourcePoint" />
            <mxPoint x="1060" y="700" as="targetPoint" />
            <Array as="points">
              <mxPoint x="970" y="715" />
              <mxPoint x="1010" y="775" />
            </Array>
          </mxGeometry>
        </mxCell>
        <mxCell id="9E_fkBD__RbafPpFBMVh-143" value="Cust_orders" style="shape=table;startSize=30;container=1;collapsible=1;childLayout=tableLayout;fixedRows=1;rowLines=0;fontStyle=1;align=center;resizeLast=1;html=1;fillOpacity=100;strokeColor=light-dark(#000000,#FF33FF);fillColor=light-dark(#FFFFFF,#FFFFFF);fontColor=light-dark(#000000,#000000);strokeWidth=3;" parent="1" vertex="1">
          <mxGeometry x="200" y="630" width="180" height="190" as="geometry" />
        </mxCell>
        <mxCell id="9E_fkBD__RbafPpFBMVh-144" value="" style="shape=tableRow;horizontal=0;startSize=0;swimlaneHead=0;swimlaneBody=0;collapsible=0;dropTarget=0;points=[[0,0.5],[1,0.5]];portConstraint=eastwest;top=0;left=0;right=0;bottom=1;fillOpacity=100;strokeColor=light-dark(#000000,#FF33FF);strokeWidth=3;" parent="9E_fkBD__RbafPpFBMVh-143" vertex="1">
          <mxGeometry y="30" width="180" height="40" as="geometry" />
        </mxCell>
        <mxCell id="9E_fkBD__RbafPpFBMVh-145" value="PK" style="shape=partialRectangle;connectable=0;top=0;left=0;bottom=0;right=0;fontStyle=1;overflow=hidden;whiteSpace=wrap;html=1;fillOpacity=100;strokeColor=light-dark(#000000,#FF33FF);fontColor=light-dark(#000000,#000000);fillColor=light-dark(#FFFFFF,#FFFFFF);strokeWidth=3;" parent="9E_fkBD__RbafPpFBMVh-144" vertex="1">
          <mxGeometry width="30" height="40" as="geometry">
            <mxRectangle width="30" height="40" as="alternateBounds" />
          </mxGeometry>
        </mxCell>
        <mxCell id="9E_fkBD__RbafPpFBMVh-146" value="Order_ID" style="shape=partialRectangle;connectable=0;top=0;left=0;bottom=0;right=0;align=left;spacingLeft=6;fontStyle=5;overflow=hidden;whiteSpace=wrap;html=1;fillOpacity=100;strokeColor=light-dark(#000000,#FF33FF);fontColor=light-dark(#000000,#000000);fillColor=light-dark(#FFFFFF,#FFFFFF);strokeWidth=3;" parent="9E_fkBD__RbafPpFBMVh-144" vertex="1">
          <mxGeometry x="30" width="150" height="40" as="geometry">
            <mxRectangle width="150" height="40" as="alternateBounds" />
          </mxGeometry>
        </mxCell>
        <mxCell id="9E_fkBD__RbafPpFBMVh-147" value="" style="shape=tableRow;horizontal=0;startSize=0;swimlaneHead=0;swimlaneBody=0;collapsible=0;dropTarget=0;points=[[0,0.5],[1,0.5]];portConstraint=eastwest;top=0;left=0;right=0;bottom=0;fillOpacity=100;strokeColor=light-dark(#000000,#FF33FF);strokeWidth=3;" parent="9E_fkBD__RbafPpFBMVh-143" vertex="1">
          <mxGeometry y="70" width="180" height="30" as="geometry" />
        </mxCell>
        <mxCell id="9E_fkBD__RbafPpFBMVh-148" value="&lt;b&gt;FK&lt;/b&gt;" style="shape=partialRectangle;connectable=0;top=0;left=0;bottom=0;right=0;editable=1;overflow=hidden;whiteSpace=wrap;html=1;fillOpacity=100;strokeColor=light-dark(#000000,#FF33FF);fontColor=light-dark(#000000,#000000);fillColor=light-dark(#FFFFFF,#FFFFFF);strokeWidth=3;" parent="9E_fkBD__RbafPpFBMVh-147" vertex="1">
          <mxGeometry width="30" height="30" as="geometry">
            <mxRectangle width="30" height="30" as="alternateBounds" />
          </mxGeometry>
        </mxCell>
        <mxCell id="9E_fkBD__RbafPpFBMVh-149" value="Customer_ID" style="shape=partialRectangle;connectable=0;top=0;left=0;bottom=0;right=0;align=left;spacingLeft=6;overflow=hidden;whiteSpace=wrap;html=1;fillOpacity=100;strokeColor=light-dark(#000000,#FF33FF);fontColor=light-dark(#000000,#000000);fillColor=light-dark(#FFFFFF,#FFFFFF);strokeWidth=3;" parent="9E_fkBD__RbafPpFBMVh-147" vertex="1">
          <mxGeometry x="30" width="150" height="30" as="geometry">
            <mxRectangle width="150" height="30" as="alternateBounds" />
          </mxGeometry>
        </mxCell>
        <mxCell id="9E_fkBD__RbafPpFBMVh-150" value="" style="shape=tableRow;horizontal=0;startSize=0;swimlaneHead=0;swimlaneBody=0;collapsible=0;dropTarget=0;points=[[0,0.5],[1,0.5]];portConstraint=eastwest;top=0;left=0;right=0;bottom=0;fillOpacity=100;strokeColor=light-dark(#000000,#FF33FF);strokeWidth=3;" parent="9E_fkBD__RbafPpFBMVh-143" vertex="1">
          <mxGeometry y="100" width="180" height="30" as="geometry" />
        </mxCell>
        <mxCell id="9E_fkBD__RbafPpFBMVh-151" value="" style="shape=partialRectangle;connectable=0;top=0;left=0;bottom=0;right=0;editable=1;overflow=hidden;whiteSpace=wrap;html=1;fillOpacity=100;strokeColor=light-dark(#000000,#FF33FF);fontColor=light-dark(#000000,#000000);fillColor=light-dark(#FFFFFF,#FFFFFF);strokeWidth=3;" parent="9E_fkBD__RbafPpFBMVh-150" vertex="1">
          <mxGeometry width="30" height="30" as="geometry">
            <mxRectangle width="30" height="30" as="alternateBounds" />
          </mxGeometry>
        </mxCell>
        <mxCell id="9E_fkBD__RbafPpFBMVh-152" value="Order_date" style="shape=partialRectangle;connectable=0;top=0;left=0;bottom=0;right=0;align=left;spacingLeft=6;overflow=hidden;whiteSpace=wrap;html=1;fillOpacity=100;strokeColor=light-dark(#000000,#FF33FF);fontColor=light-dark(#000000,#000000);fillColor=light-dark(#FFFFFF,#FFFFFF);strokeWidth=3;" parent="9E_fkBD__RbafPpFBMVh-150" vertex="1">
          <mxGeometry x="30" width="150" height="30" as="geometry">
            <mxRectangle width="150" height="30" as="alternateBounds" />
          </mxGeometry>
        </mxCell>
        <object label="" Shipping_method_ID="FK" id="9E_fkBD__RbafPpFBMVh-153">
          <mxCell style="shape=tableRow;horizontal=0;startSize=0;swimlaneHead=0;swimlaneBody=0;collapsible=0;dropTarget=0;points=[[0,0.5],[1,0.5]];portConstraint=eastwest;top=0;left=0;right=0;bottom=0;fillOpacity=100;strokeColor=light-dark(#000000,#FF33FF);strokeWidth=3;" parent="9E_fkBD__RbafPpFBMVh-143" vertex="1">
            <mxGeometry y="130" width="180" height="60" as="geometry" />
          </mxCell>
        </object>
        <object label="&lt;b&gt;FK&lt;/b&gt;" id="9E_fkBD__RbafPpFBMVh-154">
          <mxCell style="shape=partialRectangle;connectable=0;top=0;left=0;bottom=0;right=0;editable=1;overflow=hidden;whiteSpace=wrap;html=1;fillOpacity=100;strokeColor=light-dark(#000000,#FF33FF);fontColor=light-dark(#000000,#000000);fillColor=light-dark(#FFFFFF,#FFFFFF);strokeWidth=3;" parent="9E_fkBD__RbafPpFBMVh-153" vertex="1">
            <mxGeometry width="30" height="60" as="geometry">
              <mxRectangle width="30" height="60" as="alternateBounds" />
            </mxGeometry>
          </mxCell>
        </object>
        <mxCell id="9E_fkBD__RbafPpFBMVh-155" value="&lt;div&gt;orderStatus_ID(FK)&lt;/div&gt;Status_ID(FK)&lt;div&gt;Shipping_methodID(FK)&lt;/div&gt;" style="shape=partialRectangle;connectable=0;top=0;left=0;bottom=0;right=0;align=left;spacingLeft=6;overflow=hidden;whiteSpace=wrap;html=1;fillOpacity=100;strokeColor=light-dark(#000000,#FF33FF);fontColor=light-dark(#000000,#000000);fillColor=light-dark(#FFFFFF,#FFFFFF);strokeWidth=3;" parent="9E_fkBD__RbafPpFBMVh-153" vertex="1">
          <mxGeometry x="30" width="150" height="60" as="geometry">
            <mxRectangle width="150" height="60" as="alternateBounds" />
          </mxGeometry>
        </mxCell>
        <mxCell id="9E_fkBD__RbafPpFBMVh-156" value="Order_line" style="shape=table;startSize=30;container=1;collapsible=1;childLayout=tableLayout;fixedRows=1;rowLines=0;fontStyle=1;align=center;resizeLast=1;html=1;fillOpacity=100;strokeColor=light-dark(#000000,#FF33FF);fillColor=light-dark(#FFFFFF,#FFFFFF);fontColor=light-dark(#000000,#000000);strokeWidth=3;" parent="1" vertex="1">
          <mxGeometry x="600" y="805" width="200" height="160" as="geometry" />
        </mxCell>
        <mxCell id="9E_fkBD__RbafPpFBMVh-157" value="" style="shape=tableRow;horizontal=0;startSize=0;swimlaneHead=0;swimlaneBody=0;collapsible=0;dropTarget=0;points=[[0,0.5],[1,0.5]];portConstraint=eastwest;top=0;left=0;right=0;bottom=1;fillOpacity=100;strokeColor=light-dark(#000000,#FF33FF);strokeWidth=3;" parent="9E_fkBD__RbafPpFBMVh-156" vertex="1">
          <mxGeometry y="30" width="200" height="40" as="geometry" />
        </mxCell>
        <mxCell id="9E_fkBD__RbafPpFBMVh-158" value="PK" style="shape=partialRectangle;connectable=0;top=0;left=0;bottom=0;right=0;fontStyle=1;overflow=hidden;whiteSpace=wrap;html=1;fillOpacity=100;strokeColor=light-dark(#000000,#FF33FF);fillColor=light-dark(#FFFFFF,#FFFFFF);fontColor=light-dark(#000000,#000000);strokeWidth=3;" parent="9E_fkBD__RbafPpFBMVh-157" vertex="1">
          <mxGeometry width="35" height="40" as="geometry">
            <mxRectangle width="35" height="40" as="alternateBounds" />
          </mxGeometry>
        </mxCell>
        <mxCell id="9E_fkBD__RbafPpFBMVh-159" value="Order_Line_ID" style="shape=partialRectangle;connectable=0;top=0;left=0;bottom=0;right=0;align=left;spacingLeft=6;fontStyle=5;overflow=hidden;whiteSpace=wrap;html=1;fillOpacity=100;strokeColor=light-dark(#000000,#FF33FF);fillColor=light-dark(#FFFFFF,#FFFFFF);fontColor=light-dark(#000000,#000000);strokeWidth=3;" parent="9E_fkBD__RbafPpFBMVh-157" vertex="1">
          <mxGeometry x="35" width="165" height="40" as="geometry">
            <mxRectangle width="165" height="40" as="alternateBounds" />
          </mxGeometry>
        </mxCell>
        <mxCell id="9E_fkBD__RbafPpFBMVh-160" value="" style="shape=tableRow;horizontal=0;startSize=0;swimlaneHead=0;swimlaneBody=0;collapsible=0;dropTarget=0;points=[[0,0.5],[1,0.5]];portConstraint=eastwest;top=0;left=0;right=0;bottom=0;fillOpacity=100;strokeColor=light-dark(#000000,#FF33FF);strokeWidth=3;" parent="9E_fkBD__RbafPpFBMVh-156" vertex="1">
          <mxGeometry y="70" width="200" height="30" as="geometry" />
        </mxCell>
        <mxCell id="9E_fkBD__RbafPpFBMVh-161" value="&lt;b&gt;FK&lt;/b&gt;" style="shape=partialRectangle;connectable=0;top=0;left=0;bottom=0;right=0;editable=1;overflow=hidden;whiteSpace=wrap;html=1;fillOpacity=100;strokeColor=light-dark(#000000,#FF33FF);fillColor=light-dark(#FFFFFF,#FFFFFF);fontColor=light-dark(#000000,#000000);strokeWidth=3;" parent="9E_fkBD__RbafPpFBMVh-160" vertex="1">
          <mxGeometry width="35" height="30" as="geometry">
            <mxRectangle width="35" height="30" as="alternateBounds" />
          </mxGeometry>
        </mxCell>
        <mxCell id="9E_fkBD__RbafPpFBMVh-162" value="Order_ID" style="shape=partialRectangle;connectable=0;top=0;left=0;bottom=0;right=0;align=left;spacingLeft=6;overflow=hidden;whiteSpace=wrap;html=1;fillOpacity=100;strokeColor=light-dark(#000000,#FF33FF);fillColor=light-dark(#FFFFFF,#FFFFFF);fontColor=light-dark(#000000,#000000);strokeWidth=3;" parent="9E_fkBD__RbafPpFBMVh-160" vertex="1">
          <mxGeometry x="35" width="165" height="30" as="geometry">
            <mxRectangle width="165" height="30" as="alternateBounds" />
          </mxGeometry>
        </mxCell>
        <mxCell id="9E_fkBD__RbafPpFBMVh-163" value="" style="shape=tableRow;horizontal=0;startSize=0;swimlaneHead=0;swimlaneBody=0;collapsible=0;dropTarget=0;points=[[0,0.5],[1,0.5]];portConstraint=eastwest;top=0;left=0;right=0;bottom=0;fillOpacity=100;strokeColor=light-dark(#000000,#FF33FF);strokeWidth=3;" parent="9E_fkBD__RbafPpFBMVh-156" vertex="1">
          <mxGeometry y="100" width="200" height="30" as="geometry" />
        </mxCell>
        <mxCell id="9E_fkBD__RbafPpFBMVh-164" value="FK" style="shape=partialRectangle;connectable=0;top=0;left=0;bottom=0;right=0;editable=1;overflow=hidden;whiteSpace=wrap;html=1;fillOpacity=100;strokeColor=light-dark(#000000,#FF33FF);fillColor=light-dark(#FFFFFF,#FFFFFF);fontColor=light-dark(#000000,#000000);strokeWidth=3;" parent="9E_fkBD__RbafPpFBMVh-163" vertex="1">
          <mxGeometry width="35" height="30" as="geometry">
            <mxRectangle width="35" height="30" as="alternateBounds" />
          </mxGeometry>
        </mxCell>
        <mxCell id="9E_fkBD__RbafPpFBMVh-165" value="Book_ID" style="shape=partialRectangle;connectable=0;top=0;left=0;bottom=0;right=0;align=left;spacingLeft=6;overflow=hidden;whiteSpace=wrap;html=1;fillOpacity=100;strokeColor=light-dark(#000000,#FF33FF);fillColor=light-dark(#FFFFFF,#FFFFFF);fontColor=light-dark(#000000,#000000);strokeWidth=3;" parent="9E_fkBD__RbafPpFBMVh-163" vertex="1">
          <mxGeometry x="35" width="165" height="30" as="geometry">
            <mxRectangle width="165" height="30" as="alternateBounds" />
          </mxGeometry>
        </mxCell>
        <mxCell id="9E_fkBD__RbafPpFBMVh-166" value="" style="shape=tableRow;horizontal=0;startSize=0;swimlaneHead=0;swimlaneBody=0;collapsible=0;dropTarget=0;points=[[0,0.5],[1,0.5]];portConstraint=eastwest;top=0;left=0;right=0;bottom=0;fillOpacity=100;strokeColor=light-dark(#000000,#FF33FF);strokeWidth=3;" parent="9E_fkBD__RbafPpFBMVh-156" vertex="1">
          <mxGeometry y="130" width="200" height="30" as="geometry" />
        </mxCell>
        <mxCell id="9E_fkBD__RbafPpFBMVh-167" value="" style="shape=partialRectangle;connectable=0;top=0;left=0;bottom=0;right=0;editable=1;overflow=hidden;whiteSpace=wrap;html=1;fillOpacity=100;strokeColor=light-dark(#000000,#FF33FF);fillColor=light-dark(#FFFFFF,#FFFFFF);fontColor=light-dark(#000000,#000000);strokeWidth=3;" parent="9E_fkBD__RbafPpFBMVh-166" vertex="1">
          <mxGeometry width="35" height="30" as="geometry">
            <mxRectangle width="35" height="30" as="alternateBounds" />
          </mxGeometry>
        </mxCell>
        <mxCell id="9E_fkBD__RbafPpFBMVh-168" value="Quantity&lt;div&gt;Price&lt;/div&gt;" style="shape=partialRectangle;connectable=0;top=0;left=0;bottom=0;right=0;align=left;spacingLeft=6;overflow=hidden;whiteSpace=wrap;html=1;fillOpacity=100;strokeColor=light-dark(#000000,#FF33FF);fillColor=light-dark(#FFFFFF,#FFFFFF);fontColor=light-dark(#000000,#000000);strokeWidth=3;" parent="9E_fkBD__RbafPpFBMVh-166" vertex="1">
          <mxGeometry x="35" width="165" height="30" as="geometry">
            <mxRectangle width="165" height="30" as="alternateBounds" />
          </mxGeometry>
        </mxCell>
        <mxCell id="9E_fkBD__RbafPpFBMVh-169" value="" style="edgeStyle=entityRelationEdgeStyle;fontSize=12;html=1;endArrow=ERmany;startArrow=ERmany;rounded=0;entryX=0;entryY=0.5;entryDx=0;entryDy=0;exitX=1;exitY=0.5;exitDx=0;exitDy=0;fillOpacity=100;fontColor=light-dark(#000000,#000000);strokeColor=light-dark(#000000,#FF33FF);strokeWidth=3;" parent="1" source="9E_fkBD__RbafPpFBMVh-150" target="9E_fkBD__RbafPpFBMVh-79" edge="1">
          <mxGeometry width="100" height="100" relative="1" as="geometry">
            <mxPoint x="400" y="740" as="sourcePoint" />
            <mxPoint x="500" y="640" as="targetPoint" />
          </mxGeometry>
        </mxCell>
        <mxCell id="9E_fkBD__RbafPpFBMVh-170" value="" style="edgeStyle=entityRelationEdgeStyle;fontSize=12;html=1;endArrow=ERmandOne;startArrow=ERmandOne;rounded=0;exitX=1.006;exitY=0.783;exitDx=0;exitDy=0;exitPerimeter=0;entryX=0;entryY=0.5;entryDx=0;entryDy=0;fillOpacity=100;fontColor=light-dark(#000000,#000000);strokeColor=light-dark(#000000,#FF33FF);strokeWidth=3;" parent="1" source="9E_fkBD__RbafPpFBMVh-153" target="9E_fkBD__RbafPpFBMVh-133" edge="1">
          <mxGeometry width="100" height="100" relative="1" as="geometry">
            <mxPoint x="400" y="940" as="sourcePoint" />
            <mxPoint x="500" y="840" as="targetPoint" />
          </mxGeometry>
        </mxCell>
        <mxCell id="9E_fkBD__RbafPpFBMVh-171" value="shippingMethod" style="shape=table;startSize=30;container=1;collapsible=1;childLayout=tableLayout;fixedRows=1;rowLines=0;fontStyle=1;align=center;resizeLast=1;html=1;fillOpacity=100;strokeColor=light-dark(#000000,#FF33FF);fillColor=light-dark(#FFFFFF,#FFFFFF);fontColor=light-dark(#000000,#000000);strokeWidth=3;" parent="1" vertex="1">
          <mxGeometry x="110" y="920" width="140" height="160" as="geometry" />
        </mxCell>
        <mxCell id="9E_fkBD__RbafPpFBMVh-172" value="" style="shape=tableRow;horizontal=0;startSize=0;swimlaneHead=0;swimlaneBody=0;collapsible=0;dropTarget=0;points=[[0,0.5],[1,0.5]];portConstraint=eastwest;top=0;left=0;right=0;bottom=1;fillOpacity=100;strokeColor=light-dark(#000000,#FF33FF);strokeWidth=3;" parent="9E_fkBD__RbafPpFBMVh-171" vertex="1">
          <mxGeometry y="30" width="140" height="40" as="geometry" />
        </mxCell>
        <mxCell id="9E_fkBD__RbafPpFBMVh-173" value="PK" style="shape=partialRectangle;connectable=0;top=0;left=0;bottom=0;right=0;fontStyle=1;overflow=hidden;whiteSpace=wrap;html=1;fillOpacity=100;strokeColor=light-dark(#000000,#FF33FF);fillColor=light-dark(#FFFFFF,#FFFFFF);fontColor=light-dark(#000000,#000000);strokeWidth=3;" parent="9E_fkBD__RbafPpFBMVh-172" vertex="1">
          <mxGeometry width="30" height="40" as="geometry">
            <mxRectangle width="30" height="40" as="alternateBounds" />
          </mxGeometry>
        </mxCell>
        <mxCell id="9E_fkBD__RbafPpFBMVh-174" value="Shipping_methodID" style="shape=partialRectangle;connectable=0;top=0;left=0;bottom=0;right=0;align=left;spacingLeft=6;fontStyle=5;overflow=hidden;whiteSpace=wrap;html=1;fillOpacity=100;strokeColor=light-dark(#000000,#FF33FF);fillColor=light-dark(#FFFFFF,#FFFFFF);fontColor=light-dark(#000000,#000000);strokeWidth=3;" parent="9E_fkBD__RbafPpFBMVh-172" vertex="1">
          <mxGeometry x="30" width="110" height="40" as="geometry">
            <mxRectangle width="110" height="40" as="alternateBounds" />
          </mxGeometry>
        </mxCell>
        <mxCell id="9E_fkBD__RbafPpFBMVh-175" value="" style="shape=tableRow;horizontal=0;startSize=0;swimlaneHead=0;swimlaneBody=0;collapsible=0;dropTarget=0;points=[[0,0.5],[1,0.5]];portConstraint=eastwest;top=0;left=0;right=0;bottom=0;fillOpacity=100;strokeColor=light-dark(#000000,#FF33FF);strokeWidth=3;" parent="9E_fkBD__RbafPpFBMVh-171" vertex="1">
          <mxGeometry y="70" width="140" height="70" as="geometry" />
        </mxCell>
        <mxCell id="9E_fkBD__RbafPpFBMVh-176" value="" style="shape=partialRectangle;connectable=0;top=0;left=0;bottom=0;right=0;editable=1;overflow=hidden;whiteSpace=wrap;html=1;fillOpacity=100;strokeColor=light-dark(#000000,#FF33FF);fillColor=light-dark(#FFFFFF,#FFFFFF);fontColor=light-dark(#000000,#000000);strokeWidth=3;" parent="9E_fkBD__RbafPpFBMVh-175" vertex="1">
          <mxGeometry width="30" height="70" as="geometry">
            <mxRectangle width="30" height="70" as="alternateBounds" />
          </mxGeometry>
        </mxCell>
        <mxCell id="9E_fkBD__RbafPpFBMVh-177" value="methodName(e.g Local delivery, International shipping, Freight shipping&lt;div&gt;&lt;br&gt;&lt;/div&gt;" style="shape=partialRectangle;connectable=0;top=0;left=0;bottom=0;right=0;align=left;spacingLeft=6;overflow=hidden;whiteSpace=wrap;html=1;fillOpacity=100;strokeColor=light-dark(#000000,#FF33FF);fillColor=light-dark(#FFFFFF,#FFFFFF);fontColor=light-dark(#000000,#000000);strokeWidth=3;" parent="9E_fkBD__RbafPpFBMVh-175" vertex="1">
          <mxGeometry x="30" width="110" height="70" as="geometry">
            <mxRectangle width="110" height="70" as="alternateBounds" />
          </mxGeometry>
        </mxCell>
        <mxCell id="9E_fkBD__RbafPpFBMVh-178" value="" style="shape=tableRow;horizontal=0;startSize=0;swimlaneHead=0;swimlaneBody=0;collapsible=0;dropTarget=0;points=[[0,0.5],[1,0.5]];portConstraint=eastwest;top=0;left=0;right=0;bottom=0;fillOpacity=100;strokeColor=light-dark(#000000,#FF33FF);strokeWidth=3;" parent="9E_fkBD__RbafPpFBMVh-171" vertex="1">
          <mxGeometry y="140" width="140" height="20" as="geometry" />
        </mxCell>
        <mxCell id="9E_fkBD__RbafPpFBMVh-179" value="" style="shape=partialRectangle;connectable=0;top=0;left=0;bottom=0;right=0;editable=1;overflow=hidden;whiteSpace=wrap;html=1;fillOpacity=100;strokeColor=light-dark(#000000,#FF33FF);fillColor=light-dark(#FFFFFF,#FFFFFF);fontColor=light-dark(#000000,#000000);strokeWidth=3;" parent="9E_fkBD__RbafPpFBMVh-178" vertex="1">
          <mxGeometry width="30" height="20" as="geometry">
            <mxRectangle width="30" height="20" as="alternateBounds" />
          </mxGeometry>
        </mxCell>
        <mxCell id="9E_fkBD__RbafPpFBMVh-180" value="" style="shape=partialRectangle;connectable=0;top=0;left=0;bottom=0;right=0;align=left;spacingLeft=6;overflow=hidden;whiteSpace=wrap;html=1;fillOpacity=100;strokeColor=light-dark(#000000,#FF33FF);fillColor=light-dark(#FFFFFF,#FFFFFF);fontColor=light-dark(#000000,#000000);strokeWidth=3;" parent="9E_fkBD__RbafPpFBMVh-178" vertex="1">
          <mxGeometry x="30" width="110" height="20" as="geometry">
            <mxRectangle width="110" height="20" as="alternateBounds" />
          </mxGeometry>
        </mxCell>
        <mxCell id="9E_fkBD__RbafPpFBMVh-185" value="" style="edgeStyle=entityRelationEdgeStyle;fontSize=12;html=1;endArrow=ERmandOne;startArrow=ERmandOne;rounded=0;fillOpacity=100;fontColor=light-dark(#000000,#000000);strokeColor=light-dark(#000000,#FF33FF);strokeWidth=3;" parent="1" source="9E_fkBD__RbafPpFBMVh-178" target="9E_fkBD__RbafPpFBMVh-153" edge="1">
          <mxGeometry width="100" height="100" relative="1" as="geometry">
            <mxPoint x="400" y="960" as="sourcePoint" />
            <mxPoint x="500" y="860" as="targetPoint" />
          </mxGeometry>
        </mxCell>
        <mxCell id="9E_fkBD__RbafPpFBMVh-186" value="" style="edgeStyle=entityRelationEdgeStyle;fontSize=12;html=1;endArrow=ERmany;startArrow=ERmany;rounded=0;entryX=-0.002;entryY=0.275;entryDx=0;entryDy=0;entryPerimeter=0;exitX=0.991;exitY=0.083;exitDx=0;exitDy=0;exitPerimeter=0;fillOpacity=100;fontColor=light-dark(#000000,#000000);strokeColor=light-dark(#000000,#FF33FF);strokeWidth=3;" parent="1" source="9E_fkBD__RbafPpFBMVh-153" target="9E_fkBD__RbafPpFBMVh-157" edge="1">
          <mxGeometry width="100" height="100" relative="1" as="geometry">
            <mxPoint x="392" y="758" as="sourcePoint" />
            <mxPoint x="490" y="750" as="targetPoint" />
          </mxGeometry>
        </mxCell>
        <mxCell id="9E_fkBD__RbafPpFBMVh-187" value="Order_history" style="shape=table;startSize=40;container=1;collapsible=1;childLayout=tableLayout;fixedRows=1;rowLines=0;fontStyle=1;align=center;resizeLast=1;html=1;fillOpacity=100;strokeColor=light-dark(#000000,#FF33FF);fillColor=light-dark(#FFFFFF,#FFFFFF);fontColor=light-dark(#000000,#000000);strokeWidth=3;" parent="1" vertex="1">
          <mxGeometry x="-30" y="620" width="120" height="170" as="geometry" />
        </mxCell>
        <mxCell id="9E_fkBD__RbafPpFBMVh-188" value="" style="shape=tableRow;horizontal=0;startSize=0;swimlaneHead=0;swimlaneBody=0;collapsible=0;dropTarget=0;points=[[0,0.5],[1,0.5]];portConstraint=eastwest;top=0;left=0;right=0;bottom=1;fillOpacity=100;strokeColor=light-dark(#000000,#FF33FF);strokeWidth=3;" parent="9E_fkBD__RbafPpFBMVh-187" vertex="1">
          <mxGeometry y="40" width="120" height="30" as="geometry" />
        </mxCell>
        <mxCell id="9E_fkBD__RbafPpFBMVh-189" value="PK" style="shape=partialRectangle;connectable=0;top=0;left=0;bottom=0;right=0;fontStyle=1;overflow=hidden;whiteSpace=wrap;html=1;fillOpacity=100;strokeColor=light-dark(#000000,#FF33FF);fontColor=light-dark(#000000,#000000);fillColor=light-dark(#FFFFFF,#FFFFFF);strokeWidth=3;" parent="9E_fkBD__RbafPpFBMVh-188" vertex="1">
          <mxGeometry width="30" height="30" as="geometry">
            <mxRectangle width="30" height="30" as="alternateBounds" />
          </mxGeometry>
        </mxCell>
        <mxCell id="9E_fkBD__RbafPpFBMVh-190" value="history_ID" style="shape=partialRectangle;connectable=0;top=0;left=0;bottom=0;right=0;align=left;spacingLeft=6;fontStyle=5;overflow=hidden;whiteSpace=wrap;html=1;fillOpacity=100;strokeColor=light-dark(#000000,#FF33FF);fontColor=light-dark(#000000,#000000);fillColor=light-dark(#FFFFFF,#FFFFFF);strokeWidth=3;" parent="9E_fkBD__RbafPpFBMVh-188" vertex="1">
          <mxGeometry x="30" width="90" height="30" as="geometry">
            <mxRectangle width="90" height="30" as="alternateBounds" />
          </mxGeometry>
        </mxCell>
        <mxCell id="9E_fkBD__RbafPpFBMVh-191" value="" style="shape=tableRow;horizontal=0;startSize=0;swimlaneHead=0;swimlaneBody=0;collapsible=0;dropTarget=0;points=[[0,0.5],[1,0.5]];portConstraint=eastwest;top=0;left=0;right=0;bottom=0;fillOpacity=100;strokeColor=light-dark(#000000,#FF33FF);strokeWidth=3;" parent="9E_fkBD__RbafPpFBMVh-187" vertex="1">
          <mxGeometry y="70" width="120" height="30" as="geometry" />
        </mxCell>
        <mxCell id="9E_fkBD__RbafPpFBMVh-192" value="&lt;b&gt;FK&lt;/b&gt;" style="shape=partialRectangle;connectable=0;top=0;left=0;bottom=0;right=0;editable=1;overflow=hidden;whiteSpace=wrap;html=1;fillOpacity=100;strokeColor=light-dark(#000000,#FF33FF);fontColor=light-dark(#000000,#000000);fillColor=light-dark(#FFFFFF,#FFFFFF);strokeWidth=3;" parent="9E_fkBD__RbafPpFBMVh-191" vertex="1">
          <mxGeometry width="30" height="30" as="geometry">
            <mxRectangle width="30" height="30" as="alternateBounds" />
          </mxGeometry>
        </mxCell>
        <mxCell id="9E_fkBD__RbafPpFBMVh-193" value="Order_ID" style="shape=partialRectangle;connectable=0;top=0;left=0;bottom=0;right=0;align=left;spacingLeft=6;overflow=hidden;whiteSpace=wrap;html=1;fillOpacity=100;strokeColor=light-dark(#000000,#FF33FF);fontColor=light-dark(#000000,#000000);fillColor=light-dark(#FFFFFF,#FFFFFF);strokeWidth=3;" parent="9E_fkBD__RbafPpFBMVh-191" vertex="1">
          <mxGeometry x="30" width="90" height="30" as="geometry">
            <mxRectangle width="90" height="30" as="alternateBounds" />
          </mxGeometry>
        </mxCell>
        <mxCell id="9E_fkBD__RbafPpFBMVh-194" value="" style="shape=tableRow;horizontal=0;startSize=0;swimlaneHead=0;swimlaneBody=0;collapsible=0;dropTarget=0;points=[[0,0.5],[1,0.5]];portConstraint=eastwest;top=0;left=0;right=0;bottom=0;fillOpacity=100;strokeColor=light-dark(#000000,#FF33FF);strokeWidth=3;" parent="9E_fkBD__RbafPpFBMVh-187" vertex="1">
          <mxGeometry y="100" width="120" height="40" as="geometry" />
        </mxCell>
        <mxCell id="9E_fkBD__RbafPpFBMVh-195" value="FK" style="shape=partialRectangle;connectable=0;top=0;left=0;bottom=0;right=0;editable=1;overflow=hidden;whiteSpace=wrap;html=1;fillOpacity=100;strokeColor=light-dark(#000000,#FF33FF);fontColor=light-dark(#000000,#000000);fillColor=light-dark(#FFFFFF,#FFFFFF);strokeWidth=3;" parent="9E_fkBD__RbafPpFBMVh-194" vertex="1">
          <mxGeometry width="30" height="40" as="geometry">
            <mxRectangle width="30" height="40" as="alternateBounds" />
          </mxGeometry>
        </mxCell>
        <mxCell id="9E_fkBD__RbafPpFBMVh-196" value="orderStatus_ID" style="shape=partialRectangle;connectable=0;top=0;left=0;bottom=0;right=0;align=left;spacingLeft=6;overflow=hidden;whiteSpace=wrap;html=1;fillOpacity=100;strokeColor=light-dark(#000000,#FF33FF);fontColor=light-dark(#000000,#000000);fillColor=light-dark(#FFFFFF,#FFFFFF);strokeWidth=3;" parent="9E_fkBD__RbafPpFBMVh-194" vertex="1">
          <mxGeometry x="30" width="90" height="40" as="geometry">
            <mxRectangle width="90" height="40" as="alternateBounds" />
          </mxGeometry>
        </mxCell>
        <mxCell id="9E_fkBD__RbafPpFBMVh-197" value="" style="shape=tableRow;horizontal=0;startSize=0;swimlaneHead=0;swimlaneBody=0;collapsible=0;dropTarget=0;points=[[0,0.5],[1,0.5]];portConstraint=eastwest;top=0;left=0;right=0;bottom=0;fillOpacity=100;strokeColor=light-dark(#000000,#FF33FF);strokeWidth=3;" parent="9E_fkBD__RbafPpFBMVh-187" vertex="1">
          <mxGeometry y="140" width="120" height="30" as="geometry" />
        </mxCell>
        <mxCell id="9E_fkBD__RbafPpFBMVh-198" value="" style="shape=partialRectangle;connectable=0;top=0;left=0;bottom=0;right=0;editable=1;overflow=hidden;whiteSpace=wrap;html=1;fillOpacity=100;strokeColor=light-dark(#000000,#FF33FF);fontColor=light-dark(#000000,#000000);fillColor=light-dark(#FFFFFF,#FFFFFF);strokeWidth=3;" parent="9E_fkBD__RbafPpFBMVh-197" vertex="1">
          <mxGeometry width="30" height="30" as="geometry">
            <mxRectangle width="30" height="30" as="alternateBounds" />
          </mxGeometry>
        </mxCell>
        <mxCell id="9E_fkBD__RbafPpFBMVh-199" value="&lt;div&gt;&lt;span style=&quot;background-color: transparent;&quot;&gt;Date&lt;/span&gt;&lt;/div&gt;" style="shape=partialRectangle;connectable=0;top=0;left=0;bottom=0;right=0;align=left;spacingLeft=6;overflow=hidden;whiteSpace=wrap;html=1;fillOpacity=100;strokeColor=light-dark(#000000,#FF33FF);fontColor=light-dark(#000000,#000000);fillColor=light-dark(#FFFFFF,#FFFFFF);strokeWidth=3;" parent="9E_fkBD__RbafPpFBMVh-197" vertex="1">
          <mxGeometry x="30" width="90" height="30" as="geometry">
            <mxRectangle width="90" height="30" as="alternateBounds" />
          </mxGeometry>
        </mxCell>
        <mxCell id="9E_fkBD__RbafPpFBMVh-200" value="" style="edgeStyle=entityRelationEdgeStyle;fontSize=12;html=1;endArrow=ERmandOne;startArrow=ERmandOne;rounded=0;exitX=0.991;exitY=0.247;exitDx=0;exitDy=0;exitPerimeter=0;fillOpacity=100;fontColor=light-dark(#000000,#000000);strokeColor=light-dark(#000000,#FF33FF);strokeWidth=3;" parent="1" source="9E_fkBD__RbafPpFBMVh-197" target="9E_fkBD__RbafPpFBMVh-147" edge="1">
          <mxGeometry width="100" height="100" relative="1" as="geometry">
            <mxPoint x="80" y="790" as="sourcePoint" />
            <mxPoint x="180" y="690" as="targetPoint" />
          </mxGeometry>
        </mxCell>
        <mxCell id="9E_fkBD__RbafPpFBMVh-201" value="Order_status" style="shape=table;startSize=30;container=1;collapsible=1;childLayout=tableLayout;fixedRows=1;rowLines=0;fontStyle=1;align=center;resizeLast=1;html=1;fillOpacity=100;strokeColor=light-dark(#000000,#FF33FF);fontColor=light-dark(#000000,#000000);fillColor=light-dark(#FFFFFF,#FFFFFF);strokeWidth=3;" parent="1" vertex="1">
          <mxGeometry x="-300" y="790" width="180" height="110" as="geometry" />
        </mxCell>
        <mxCell id="9E_fkBD__RbafPpFBMVh-202" value="" style="shape=tableRow;horizontal=0;startSize=0;swimlaneHead=0;swimlaneBody=0;collapsible=0;dropTarget=0;points=[[0,0.5],[1,0.5]];portConstraint=eastwest;top=0;left=0;right=0;bottom=1;fillOpacity=100;strokeColor=light-dark(#000000,#FF33FF);strokeWidth=3;" parent="9E_fkBD__RbafPpFBMVh-201" vertex="1">
          <mxGeometry y="30" width="180" height="20" as="geometry" />
        </mxCell>
        <mxCell id="9E_fkBD__RbafPpFBMVh-203" value="PK" style="shape=partialRectangle;connectable=0;top=0;left=0;bottom=0;right=0;fontStyle=1;overflow=hidden;whiteSpace=wrap;html=1;fillOpacity=100;strokeColor=light-dark(#000000,#FF33FF);fillColor=light-dark(#FFFFFF,#FFFFFF);fontColor=light-dark(#000000,#000000);strokeWidth=3;" parent="9E_fkBD__RbafPpFBMVh-202" vertex="1">
          <mxGeometry width="30" height="20" as="geometry">
            <mxRectangle width="30" height="20" as="alternateBounds" />
          </mxGeometry>
        </mxCell>
        <mxCell id="9E_fkBD__RbafPpFBMVh-204" value="orderStatus_ID" style="shape=partialRectangle;connectable=0;top=0;left=0;bottom=0;right=0;align=left;spacingLeft=6;fontStyle=5;overflow=hidden;whiteSpace=wrap;html=1;fillOpacity=100;strokeColor=light-dark(#000000,#FF33FF);fillColor=light-dark(#FFFFFF,#FFFFFF);fontColor=light-dark(#000000,#000000);strokeWidth=3;" parent="9E_fkBD__RbafPpFBMVh-202" vertex="1">
          <mxGeometry x="30" width="150" height="20" as="geometry">
            <mxRectangle width="150" height="20" as="alternateBounds" />
          </mxGeometry>
        </mxCell>
        <mxCell id="9E_fkBD__RbafPpFBMVh-205" value="" style="shape=tableRow;horizontal=0;startSize=0;swimlaneHead=0;swimlaneBody=0;collapsible=0;dropTarget=0;points=[[0,0.5],[1,0.5]];portConstraint=eastwest;top=0;left=0;right=0;bottom=0;fillOpacity=100;strokeColor=light-dark(#000000,#FF33FF);strokeWidth=3;" parent="9E_fkBD__RbafPpFBMVh-201" vertex="1">
          <mxGeometry y="50" width="180" height="20" as="geometry" />
        </mxCell>
        <mxCell id="9E_fkBD__RbafPpFBMVh-206" value="" style="shape=partialRectangle;connectable=0;top=0;left=0;bottom=0;right=0;editable=1;overflow=hidden;whiteSpace=wrap;html=1;fillOpacity=100;strokeColor=light-dark(#000000,#FF33FF);fillColor=light-dark(#FFFFFF,#FFFFFF);fontColor=light-dark(#000000,#000000);strokeWidth=3;" parent="9E_fkBD__RbafPpFBMVh-205" vertex="1">
          <mxGeometry width="30" height="20" as="geometry">
            <mxRectangle width="30" height="20" as="alternateBounds" />
          </mxGeometry>
        </mxCell>
        <mxCell id="9E_fkBD__RbafPpFBMVh-207" value="status_Name(Pending, Delivered, Cancelled ,Shipped)" style="shape=partialRectangle;connectable=0;top=0;left=0;bottom=0;right=0;align=left;spacingLeft=6;overflow=hidden;whiteSpace=wrap;html=1;fillOpacity=100;strokeColor=light-dark(#000000,#FF33FF);fillColor=light-dark(#FFFFFF,#FFFFFF);fontColor=light-dark(#000000,#000000);strokeWidth=3;" parent="9E_fkBD__RbafPpFBMVh-205" vertex="1">
          <mxGeometry x="30" width="150" height="20" as="geometry">
            <mxRectangle width="150" height="20" as="alternateBounds" />
          </mxGeometry>
        </mxCell>
        <mxCell id="9E_fkBD__RbafPpFBMVh-208" value="" style="shape=tableRow;horizontal=0;startSize=0;swimlaneHead=0;swimlaneBody=0;collapsible=0;dropTarget=0;points=[[0,0.5],[1,0.5]];portConstraint=eastwest;top=0;left=0;right=0;bottom=0;fillOpacity=100;strokeColor=light-dark(#000000,#FF33FF);strokeWidth=3;" parent="9E_fkBD__RbafPpFBMVh-201" vertex="1">
          <mxGeometry y="70" width="180" height="20" as="geometry" />
        </mxCell>
        <mxCell id="9E_fkBD__RbafPpFBMVh-209" value="" style="shape=partialRectangle;connectable=0;top=0;left=0;bottom=0;right=0;editable=1;overflow=hidden;whiteSpace=wrap;html=1;fillOpacity=100;strokeColor=light-dark(#000000,#FF33FF);fillColor=light-dark(#FFFFFF,#FFFFFF);fontColor=light-dark(#000000,#000000);strokeWidth=3;" parent="9E_fkBD__RbafPpFBMVh-208" vertex="1">
          <mxGeometry width="30" height="20" as="geometry">
            <mxRectangle width="30" height="20" as="alternateBounds" />
          </mxGeometry>
        </mxCell>
        <mxCell id="9E_fkBD__RbafPpFBMVh-210" value="" style="shape=partialRectangle;connectable=0;top=0;left=0;bottom=0;right=0;align=left;spacingLeft=6;overflow=hidden;whiteSpace=wrap;html=1;fillOpacity=100;strokeColor=light-dark(#000000,#FF33FF);fillColor=light-dark(#FFFFFF,#FFFFFF);fontColor=light-dark(#000000,#000000);strokeWidth=3;" parent="9E_fkBD__RbafPpFBMVh-208" vertex="1">
          <mxGeometry x="30" width="150" height="20" as="geometry">
            <mxRectangle width="150" height="20" as="alternateBounds" />
          </mxGeometry>
        </mxCell>
        <mxCell id="9E_fkBD__RbafPpFBMVh-211" value="" style="shape=tableRow;horizontal=0;startSize=0;swimlaneHead=0;swimlaneBody=0;collapsible=0;dropTarget=0;points=[[0,0.5],[1,0.5]];portConstraint=eastwest;top=0;left=0;right=0;bottom=0;fillOpacity=100;strokeColor=light-dark(#000000,#FF33FF);strokeWidth=3;" parent="9E_fkBD__RbafPpFBMVh-201" vertex="1">
          <mxGeometry y="90" width="180" height="20" as="geometry" />
        </mxCell>
        <mxCell id="9E_fkBD__RbafPpFBMVh-212" value="" style="shape=partialRectangle;connectable=0;top=0;left=0;bottom=0;right=0;editable=1;overflow=hidden;whiteSpace=wrap;html=1;fillOpacity=100;strokeColor=light-dark(#000000,#FF33FF);fillColor=light-dark(#FFFFFF,#FFFFFF);fontColor=light-dark(#000000,#000000);strokeWidth=3;" parent="9E_fkBD__RbafPpFBMVh-211" vertex="1">
          <mxGeometry width="30" height="20" as="geometry">
            <mxRectangle width="30" height="20" as="alternateBounds" />
          </mxGeometry>
        </mxCell>
        <mxCell id="9E_fkBD__RbafPpFBMVh-213" value="" style="shape=partialRectangle;connectable=0;top=0;left=0;bottom=0;right=0;align=left;spacingLeft=6;overflow=hidden;whiteSpace=wrap;html=1;fillOpacity=100;strokeColor=light-dark(#000000,#FF33FF);fillColor=light-dark(#FFFFFF,#FFFFFF);fontColor=light-dark(#000000,#000000);strokeWidth=3;" parent="9E_fkBD__RbafPpFBMVh-211" vertex="1">
          <mxGeometry x="30" width="150" height="20" as="geometry">
            <mxRectangle width="150" height="20" as="alternateBounds" />
          </mxGeometry>
        </mxCell>
        <mxCell id="GNEnMeXsHBwMYS1z2DLw-1" value="" style="edgeStyle=entityRelationEdgeStyle;fontSize=12;html=1;endArrow=ERoneToMany;rounded=0;exitX=-0.019;exitY=0.952;exitDx=0;exitDy=0;exitPerimeter=0;entryX=1;entryY=0.25;entryDx=0;entryDy=0;strokeColor=light-dark(#000000,#FF33FF);strokeWidth=3;" edge="1" parent="1" source="9E_fkBD__RbafPpFBMVh-2" target="9E_fkBD__RbafPpFBMVh-45">
          <mxGeometry width="100" height="100" relative="1" as="geometry">
            <mxPoint x="90" y="290" as="sourcePoint" />
            <mxPoint x="60" y="500" as="targetPoint" />
          </mxGeometry>
        </mxCell>
        <mxCell id="GNEnMeXsHBwMYS1z2DLw-2" value="" style="edgeStyle=entityRelationEdgeStyle;fontSize=12;html=1;endArrow=ERmandOne;startArrow=ERmandOne;rounded=0;exitX=1;exitY=0.5;exitDx=0;exitDy=0;strokeColor=light-dark(#000000,#FF33FF);strokeWidth=3;" edge="1" parent="1" source="9E_fkBD__RbafPpFBMVh-1" target="9E_fkBD__RbafPpFBMVh-63">
          <mxGeometry width="100" height="100" relative="1" as="geometry">
            <mxPoint x="230" y="290" as="sourcePoint" />
            <mxPoint x="220" y="320" as="targetPoint" />
          </mxGeometry>
        </mxCell>
        <mxCell id="GNEnMeXsHBwMYS1z2DLw-15" value="" style="edgeStyle=entityRelationEdgeStyle;fontSize=12;html=1;endArrow=ERmandOne;startArrow=ERmandOne;rounded=0;exitX=1;exitY=0.5;exitDx=0;exitDy=0;entryX=-0.046;entryY=1.1;entryDx=0;entryDy=0;entryPerimeter=0;strokeColor=light-dark(#000000,#FF33FF);strokeWidth=3;" edge="1" parent="1" source="9E_fkBD__RbafPpFBMVh-27" target="9E_fkBD__RbafPpFBMVh-15">
          <mxGeometry width="100" height="100" relative="1" as="geometry">
            <mxPoint x="590" y="400" as="sourcePoint" />
            <mxPoint x="690" y="300" as="targetPoint" />
          </mxGeometry>
        </mxCell>
        <mxCell id="GNEnMeXsHBwMYS1z2DLw-16" value="Customer_address" style="shape=table;startSize=30;container=1;collapsible=1;childLayout=tableLayout;fixedRows=1;rowLines=0;fontStyle=1;align=center;resizeLast=1;html=1;fillColor=light-dark(#FFFFFF,#FFFFFF);strokeColor=light-dark(#000000,#FF33FF);fontColor=light-dark(#000000,#000000);strokeWidth=3;" vertex="1" parent="1">
          <mxGeometry x="460" y="520" width="180" height="130" as="geometry" />
        </mxCell>
        <mxCell id="GNEnMeXsHBwMYS1z2DLw-17" value="" style="shape=tableRow;horizontal=0;startSize=0;swimlaneHead=0;swimlaneBody=0;fillColor=light-dark(#FFFFFF,#FFFFFF);collapsible=0;dropTarget=0;points=[[0,0.5],[1,0.5]];portConstraint=eastwest;top=0;left=0;right=0;bottom=1;fontColor=light-dark(#000000,#000000);strokeColor=light-dark(#000000,#FF33FF);strokeWidth=3;" vertex="1" parent="GNEnMeXsHBwMYS1z2DLw-16">
          <mxGeometry y="30" width="180" height="20" as="geometry" />
        </mxCell>
        <mxCell id="GNEnMeXsHBwMYS1z2DLw-18" value="PK" style="shape=partialRectangle;connectable=0;fillColor=none;top=0;left=0;bottom=0;right=0;fontStyle=1;overflow=hidden;whiteSpace=wrap;html=1;fontColor=light-dark(#000000,#000000);strokeColor=light-dark(#000000,#FF33FF);strokeWidth=3;" vertex="1" parent="GNEnMeXsHBwMYS1z2DLw-17">
          <mxGeometry width="30" height="20" as="geometry">
            <mxRectangle width="30" height="20" as="alternateBounds" />
          </mxGeometry>
        </mxCell>
        <mxCell id="GNEnMeXsHBwMYS1z2DLw-19" value="customer_ID" style="shape=partialRectangle;connectable=0;fillColor=none;top=0;left=0;bottom=0;right=0;align=left;spacingLeft=6;fontStyle=5;overflow=hidden;whiteSpace=wrap;html=1;fontColor=light-dark(#000000,#000000);strokeColor=light-dark(#000000,#FF33FF);strokeWidth=3;" vertex="1" parent="GNEnMeXsHBwMYS1z2DLw-17">
          <mxGeometry x="30" width="150" height="20" as="geometry">
            <mxRectangle width="150" height="20" as="alternateBounds" />
          </mxGeometry>
        </mxCell>
        <mxCell id="GNEnMeXsHBwMYS1z2DLw-20" value="" style="shape=tableRow;horizontal=0;startSize=0;swimlaneHead=0;swimlaneBody=0;fillColor=none;collapsible=0;dropTarget=0;points=[[0,0.5],[1,0.5]];portConstraint=eastwest;top=0;left=0;right=0;bottom=0;strokeColor=light-dark(#000000,#FF33FF);strokeWidth=3;" vertex="1" parent="GNEnMeXsHBwMYS1z2DLw-16">
          <mxGeometry y="50" width="180" height="20" as="geometry" />
        </mxCell>
        <mxCell id="GNEnMeXsHBwMYS1z2DLw-21" value="&lt;b&gt;FK&lt;/b&gt;" style="shape=partialRectangle;connectable=0;fillColor=light-dark(#FFFFFF,#FFFFFF);top=0;left=0;bottom=0;right=0;editable=1;overflow=hidden;whiteSpace=wrap;html=1;fontColor=light-dark(#000000,#000000);strokeColor=light-dark(#000000,#FF33FF);strokeWidth=3;" vertex="1" parent="GNEnMeXsHBwMYS1z2DLw-20">
          <mxGeometry width="30" height="20" as="geometry">
            <mxRectangle width="30" height="20" as="alternateBounds" />
          </mxGeometry>
        </mxCell>
        <mxCell id="GNEnMeXsHBwMYS1z2DLw-22" value="Address_ID" style="shape=partialRectangle;connectable=0;fillColor=light-dark(#FFFFFF,#FFFFFF);top=0;left=0;bottom=0;right=0;align=left;spacingLeft=6;overflow=hidden;whiteSpace=wrap;html=1;fontColor=light-dark(#000000,#000000);strokeColor=light-dark(#000000,#FF33FF);strokeWidth=3;" vertex="1" parent="GNEnMeXsHBwMYS1z2DLw-20">
          <mxGeometry x="30" width="150" height="20" as="geometry">
            <mxRectangle width="150" height="20" as="alternateBounds" />
          </mxGeometry>
        </mxCell>
        <mxCell id="GNEnMeXsHBwMYS1z2DLw-23" value="" style="shape=tableRow;horizontal=0;startSize=0;swimlaneHead=0;swimlaneBody=0;fillColor=none;collapsible=0;dropTarget=0;points=[[0,0.5],[1,0.5]];portConstraint=eastwest;top=0;left=0;right=0;bottom=0;strokeColor=light-dark(#000000,#FF33FF);strokeWidth=3;" vertex="1" parent="GNEnMeXsHBwMYS1z2DLw-16">
          <mxGeometry y="70" width="180" height="30" as="geometry" />
        </mxCell>
        <mxCell id="GNEnMeXsHBwMYS1z2DLw-24" value="" style="shape=partialRectangle;connectable=0;fillColor=light-dark(#FFFFFF,#FFFFFF);top=0;left=0;bottom=0;right=0;editable=1;overflow=hidden;whiteSpace=wrap;html=1;fontColor=light-dark(#000000,#000000);strokeColor=light-dark(#000000,#FF33FF);strokeWidth=3;" vertex="1" parent="GNEnMeXsHBwMYS1z2DLw-23">
          <mxGeometry width="30" height="30" as="geometry">
            <mxRectangle width="30" height="30" as="alternateBounds" />
          </mxGeometry>
        </mxCell>
        <mxCell id="GNEnMeXsHBwMYS1z2DLw-25" value="Address _1&lt;div&gt;Address_2&lt;/div&gt;" style="shape=partialRectangle;connectable=0;fillColor=light-dark(#FFFFFF,#FFFFFF);top=0;left=0;bottom=0;right=0;align=left;spacingLeft=6;overflow=hidden;whiteSpace=wrap;html=1;fontColor=light-dark(#000000,#000000);strokeColor=light-dark(#000000,#FF33FF);strokeWidth=3;" vertex="1" parent="GNEnMeXsHBwMYS1z2DLw-23">
          <mxGeometry x="30" width="150" height="30" as="geometry">
            <mxRectangle width="150" height="30" as="alternateBounds" />
          </mxGeometry>
        </mxCell>
        <mxCell id="GNEnMeXsHBwMYS1z2DLw-26" value="" style="shape=tableRow;horizontal=0;startSize=0;swimlaneHead=0;swimlaneBody=0;fillColor=none;collapsible=0;dropTarget=0;points=[[0,0.5],[1,0.5]];portConstraint=eastwest;top=0;left=0;right=0;bottom=0;strokeColor=light-dark(#000000,#FF33FF);strokeWidth=3;" vertex="1" parent="GNEnMeXsHBwMYS1z2DLw-16">
          <mxGeometry y="100" width="180" height="30" as="geometry" />
        </mxCell>
        <mxCell id="GNEnMeXsHBwMYS1z2DLw-27" value="" style="shape=partialRectangle;connectable=0;fillColor=light-dark(#FFFFFF,#FFFFFF);top=0;left=0;bottom=0;right=0;editable=1;overflow=hidden;whiteSpace=wrap;html=1;fontColor=light-dark(#000000,#000000);strokeColor=light-dark(#000000,#FF33FF);strokeWidth=3;" vertex="1" parent="GNEnMeXsHBwMYS1z2DLw-26">
          <mxGeometry width="30" height="30" as="geometry">
            <mxRectangle width="30" height="30" as="alternateBounds" />
          </mxGeometry>
        </mxCell>
        <mxCell id="GNEnMeXsHBwMYS1z2DLw-28" value="Address_3&lt;div&gt;&lt;br&gt;&lt;/div&gt;" style="shape=partialRectangle;connectable=0;fillColor=light-dark(#FFFFFF,#FFFFFF);top=0;left=0;bottom=0;right=0;align=left;spacingLeft=6;overflow=hidden;whiteSpace=wrap;html=1;fontColor=light-dark(#000000,#000000);strokeColor=light-dark(#000000,#FF33FF);strokeWidth=3;" vertex="1" parent="GNEnMeXsHBwMYS1z2DLw-26">
          <mxGeometry x="30" width="150" height="30" as="geometry">
            <mxRectangle width="150" height="30" as="alternateBounds" />
          </mxGeometry>
        </mxCell>
        <mxCell id="GNEnMeXsHBwMYS1z2DLw-29" value="" style="edgeStyle=entityRelationEdgeStyle;fontSize=12;html=1;endArrow=ERmany;startArrow=ERmany;rounded=0;exitX=1;exitY=0.5;exitDx=0;exitDy=0;entryX=0;entryY=0.25;entryDx=0;entryDy=0;strokeColor=light-dark(#000000,#FF33FF);strokeWidth=3;" edge="1" parent="1" source="GNEnMeXsHBwMYS1z2DLw-17" target="9E_fkBD__RbafPpFBMVh-100">
          <mxGeometry width="100" height="100" relative="1" as="geometry">
            <mxPoint x="650" y="550" as="sourcePoint" />
            <mxPoint x="700" y="380" as="targetPoint" />
          </mxGeometry>
        </mxCell>
        <mxCell id="GNEnMeXsHBwMYS1z2DLw-33" value="" style="edgeStyle=entityRelationEdgeStyle;fontSize=12;html=1;endArrow=ERmandOne;startArrow=ERmandOne;rounded=0;entryX=0;entryY=0.5;entryDx=0;entryDy=0;exitX=1;exitY=0.5;exitDx=0;exitDy=0;strokeColor=light-dark(#000000,#FF33FF);strokeWidth=3;" edge="1" parent="1" source="9E_fkBD__RbafPpFBMVh-201" target="9E_fkBD__RbafPpFBMVh-188">
          <mxGeometry width="100" height="100" relative="1" as="geometry">
            <mxPoint x="-180" y="890" as="sourcePoint" />
            <mxPoint x="-80" y="790" as="targetPoint" />
            <Array as="points">
              <mxPoint x="-360" y="860" />
            </Array>
          </mxGeometry>
        </mxCell>
        <mxCell id="GNEnMeXsHBwMYS1z2DLw-34" value="" style="edgeStyle=entityRelationEdgeStyle;fontSize=12;html=1;endArrow=ERmandOne;startArrow=ERmandOne;rounded=0;entryX=0;entryY=0.75;entryDx=0;entryDy=0;exitX=1;exitY=0.75;exitDx=0;exitDy=0;strokeColor=light-dark(#000000,#FF33FF);strokeWidth=3;" edge="1" parent="1" source="9E_fkBD__RbafPpFBMVh-201" target="9E_fkBD__RbafPpFBMVh-143">
          <mxGeometry width="100" height="100" relative="1" as="geometry">
            <mxPoint x="20" y="940" as="sourcePoint" />
            <mxPoint x="120" y="840" as="targetPoint" />
          </mxGeometry>
        </mxCell>
        <mxCell id="GNEnMeXsHBwMYS1z2DLw-35" value="" style="edgeStyle=entityRelationEdgeStyle;fontSize=12;html=1;endArrow=ERmany;rounded=0;entryX=0;entryY=0.25;entryDx=0;entryDy=0;exitX=1;exitY=0.5;exitDx=0;exitDy=0;strokeWidth=3;strokeColor=light-dark(#000000,#FF00FF);" edge="1" parent="1" source="9E_fkBD__RbafPpFBMVh-2" target="9E_fkBD__RbafPpFBMVh-27">
          <mxGeometry width="100" height="100" relative="1" as="geometry">
            <mxPoint x="220" y="180" as="sourcePoint" />
            <mxPoint x="320" y="80" as="targetPoint" />
          </mxGeometry>
        </mxCell>
      </root>
    </mxGraphModel>
  </diagram>
</mxfile>
